<svg width="72" height="56" viewBox="0 0 72 56" fill="none" xmlns="http://www.w3.org/2000/svg">
<g clip-path="url(#clip0)">
<path d="M70.1656 9.15552H14.2834C13.5468 9.15552 12.9497 9.75261 12.9497 10.4892V50.1697C12.9497 50.9063 13.5468 51.5034 14.2834 51.5034H70.1656C70.9021 51.5034 71.4992 50.9063 71.4992 50.1697V10.4892C71.4992 9.75261 70.9021 9.15552 70.1656 9.15552Z" fill="#70B3A7"/>
<path d="M33.9194 8.68435C33.9838 7.19749 34.1727 5.71863 34.484 4.2633C34.7063 3.24973 35.0152 2.18058 35.8177 1.52709C36.7018 0.860634 37.7757 0.493855 38.8828 0.480178C41.6879 0.393491 44.5153 0.480178 47.3293 0.480178C49.4698 0.480178 50.5389 2.63625 50.6367 3.67427L51.1458 9.07778" stroke="#0D8570" stroke-width="0.889101" stroke-linecap="round" stroke-linejoin="round"/>
<path d="M25.1839 55.0686H14.8726C13.5816 55.0685 12.3374 54.5846 11.3857 53.7122C10.4339 52.8399 9.84368 51.6426 9.73137 50.3564L7.86426 28.8958H32.2567L30.3207 50.3764C30.2047 51.6586 29.6134 52.851 28.6628 53.7193C27.7123 54.5876 26.4713 55.0689 25.1839 55.0686Z" fill="#00856F"/>
<path d="M31.4984 29.2203C31.4984 30.2695 26.3705 31.0986 20.0534 31.0719C18.133 31.0719 16.3236 30.9763 14.7366 30.8318C11.098 30.4984 8.61958 29.8538 8.62403 29.1248C8.62403 28.0756 13.7519 27.2465 20.069 27.2732C26.386 27.2999 31.5028 28.1734 31.4984 29.2203Z" fill="#70B2A6" stroke="#0D8570" stroke-width="1.55593" stroke-linecap="round" stroke-linejoin="round"/>
<path d="M9.38444 34.8394C9.19773 30.7562 2.47391 29.556 1.12247 33.9059C-0.849107 40.263 10.2869 41.2165 10.6292 48.7205" stroke="#0D8570" stroke-width="1.7782" stroke-linecap="round" stroke-linejoin="round"/>
<path d="M52.0456 48.6183C52.0456 48.6183 39.3293 35.0239 38.4357 34.1393C37.231 35.5085 35.8907 36.851 34.6837 38.2203C34.6414 38.258 34.6152 38.3105 34.6104 38.367C34.6203 38.4155 34.6461 38.4593 34.6837 38.4914C35.1371 38.9686 35.5913 39.4472 36.0462 39.9273L42.759 47.009C44.3616 48.7005 47.8446 52.5481 47.9135 52.5526C47.9824 52.557 50.8453 50.072 52.0456 48.6183Z" fill="#DCE9E2"/>
<path d="M32.6455 32.1632L33.6791 35.4262C34.4726 34.7594 35.2484 34.0503 35.9974 33.3257L32.6455 32.1632Z" fill="#00856F"/>
<path d="M38.4071 34.1614L36.0088 33.3257C35.2597 34.0503 34.484 34.7505 33.6904 35.4262L34.6218 38.3669C36.0471 37.1214 37.3179 35.7095 38.4071 34.1614Z" fill="white"/>
<path d="M52.0457 48.6183C50.712 49.9519 49.1561 51.1567 47.9136 52.5526C48.9568 53.7978 50.105 54.9512 51.3455 56C52.7681 54.8146 54.1439 53.5713 55.4732 52.2703L52.0457 48.6183Z" fill="#00856F"/>
<path d="M52.7459 47.9137L46.9268 53.5061" stroke="#0D8570" stroke-width="0.889101" stroke-linecap="round" stroke-linejoin="round"/>
<path d="M14.8926 18.4244H69.699" stroke="#0D8570" stroke-width="0.889101" stroke-linecap="round" stroke-linejoin="round"/>
<path d="M36.7153 18.8089V21.7429H46.5999V18.6533" stroke="#0D8570" stroke-width="0.889101" stroke-linecap="round" stroke-linejoin="round"/>
</g>
<defs>
<clipPath id="clip0">
<rect width="71.4992" height="56" fill="white"/>
</clipPath>
</defs>
</svg>
