<svg width="46" height="56" viewBox="0 0 46 56" fill="none" xmlns="http://www.w3.org/2000/svg">
<g clip-path="url(#clip0)">
<path d="M4.93604 1.33281C4.93604 1.33281 5.61167 23.0658 5.77956 50.8201L44.6798 49.1822C44.6798 49.1822 42.7655 21.0307 42.7655 0.536377L4.93604 1.33281Z" fill="#70B3A7" stroke="white" stroke-width="1.08921" stroke-linecap="round" stroke-linejoin="round"/>
<path d="M0.431953 6.17493C0.431953 6.17493 -0.91932 27.007 1.16082 56L39.8441 55.2793C39.8441 55.2793 38.1222 26.8453 38.3802 6.52093L0.431953 6.17493Z" fill="#DCE9E2"/>
<path d="M28.2456 29.7096L6.10107 29.7567" stroke="#70B3A7" stroke-width="0.818953" stroke-linecap="round" stroke-linejoin="round"/>
<path d="M33.184 32.4224L6.15039 32.8625" stroke="#70B3A7" stroke-width="0.818953" stroke-linecap="round" stroke-linejoin="round"/>
<path d="M32.187 35.5651L6.20166 35.9704" stroke="#70B3A7" stroke-width="0.818953" stroke-linecap="round" stroke-linejoin="round"/>
<path d="M18.787 38.8307L6.25293 39.0764" stroke="#70B3A7" stroke-width="0.818953" stroke-linecap="round" stroke-linejoin="round"/>
<path d="M33.3354 41.7421L6.30176 42.1823" stroke="#70B3A7" stroke-width="0.818953" stroke-linecap="round" stroke-linejoin="round"/>
<path d="M31.5113 44.7988L6.35303 45.2882" stroke="#70B3A7" stroke-width="0.818953" stroke-linecap="round" stroke-linejoin="round"/>
<path d="M32.9752 48.0643L6.4043 48.396" stroke="#70B3A7" stroke-width="0.818953" stroke-linecap="round" stroke-linejoin="round"/>
<path d="M29.0337 51.1047L6.45312 51.5019" stroke="#70B3A7" stroke-width="0.818953" stroke-linecap="round" stroke-linejoin="round"/>
<path d="M6.51501 18.9179C6.45317 18.9164 6.39164 18.9271 6.33395 18.9494C6.27625 18.9717 6.22351 19.0051 6.17873 19.0478C6.13396 19.0905 6.09803 19.1416 6.073 19.1981C6.04797 19.2547 6.03433 19.3156 6.03285 19.3775C6.03137 19.4393 6.04209 19.5009 6.06439 19.5586C6.08668 19.6162 6.12013 19.669 6.16281 19.7138C6.20549 19.7585 6.25657 19.7945 6.31314 19.8195C6.36971 19.8445 6.43065 19.8582 6.49249 19.8596C6.99188 19.8716 7.48755 19.7708 7.94267 19.5649C8.39778 19.359 8.80064 19.0531 9.12133 18.6701C8.92932 18.3648 8.78115 18.0339 8.68114 17.6874C8.46608 18.07 8.15075 18.3868 7.76907 18.6036C7.3874 18.8205 6.95382 18.9291 6.51501 18.9179ZM8.87973 15.7157C8.96424 15.9803 9.00437 16.257 8.99848 16.5347C8.98225 17.1293 9.12351 17.7177 9.40796 18.2402C9.44891 18.3139 9.496 18.3917 9.54104 18.4613C9.58608 18.5309 9.63317 18.5985 9.68436 18.666C9.83627 18.8688 10.0115 19.0529 10.2064 19.2147C10.8802 19.7792 11.7506 20.0532 12.6262 19.9764C13.5019 19.8996 14.3112 19.4784 14.8765 18.8052C14.6881 18.4959 14.5441 18.1616 14.4486 17.8123C14.2347 18.1968 13.9196 18.5154 13.5375 18.7337C13.1554 18.952 12.7209 19.0616 12.281 19.0506C11.8411 19.0397 11.4126 18.9086 11.0419 18.6715C10.6711 18.4345 10.3723 18.1005 10.1778 17.7058C10.121 17.5934 10.0724 17.4771 10.0324 17.3577C9.94856 17.0931 9.90913 16.8163 9.91571 16.5388C9.92765 15.9433 9.78291 15.3552 9.496 14.8333C9.45505 14.7576 9.41001 14.6818 9.36292 14.6122C9.31583 14.5426 9.27078 14.4771 9.22165 14.4075C8.91895 14.0124 8.53158 13.6902 8.08799 13.4645C7.6444 13.2388 7.15588 13.1154 6.65832 13.1033C6.59702 13.1018 6.53603 13.1124 6.47883 13.1345C6.42163 13.1566 6.36934 13.1897 6.32495 13.232C6.28055 13.2743 6.24493 13.325 6.2201 13.381C6.19528 13.4371 6.18174 13.4975 6.18026 13.5588C6.17878 13.6201 6.18939 13.6811 6.21149 13.7383C6.23358 13.7955 6.26672 13.8478 6.30902 13.8922C6.35132 13.9366 6.40195 13.9722 6.45802 13.997C6.51409 14.0219 6.5745 14.0354 6.6358 14.0369C7.07537 14.048 7.50355 14.179 7.87412 14.4157C8.24468 14.6524 8.54355 14.9858 8.73847 15.38C8.79358 15.4905 8.84078 15.6047 8.87973 15.7219V15.7157ZM18.1687 14.3194C18.2322 14.3249 18.2961 14.3173 18.3566 14.2971C18.417 14.2769 18.4727 14.2446 18.5202 14.2021C18.5676 14.1596 18.6059 14.1078 18.6326 14.0499C18.6593 13.9921 18.6739 13.9293 18.6754 13.8656C18.6769 13.8019 18.6654 13.7386 18.6416 13.6795C18.6177 13.6204 18.582 13.5668 18.5366 13.5221C18.4912 13.4773 18.4372 13.4423 18.3778 13.4192C18.3184 13.3962 18.2549 13.3855 18.1912 13.3879C17.6922 13.3751 17.1967 13.4746 16.7413 13.6791C16.2859 13.8835 15.8823 14.1878 15.5603 14.5692C15.7537 14.8765 15.9013 15.2103 15.9985 15.5601C16.215 15.178 16.5313 14.8618 16.9135 14.6455C17.2958 14.4291 17.7296 14.3206 18.1687 14.3317V14.3194ZM14.6431 15.857C14.7296 16.1211 14.7698 16.3982 14.7619 16.676C14.7494 17.2717 14.8949 17.8602 15.1836 18.3814C15.224 18.4574 15.2685 18.5313 15.3167 18.6026C15.3601 18.6733 15.4073 18.7416 15.458 18.8073C15.7587 19.2041 16.1449 19.5281 16.5879 19.7553C17.031 19.9825 17.5195 20.107 18.0172 20.1197C18.0807 20.1251 18.1446 20.1175 18.2051 20.0974C18.2655 20.0772 18.3212 20.0448 18.3687 20.0023C18.4161 19.9598 18.4544 19.908 18.4811 19.8501C18.5078 19.7923 18.5224 19.7296 18.5239 19.6659C18.5254 19.6022 18.5139 19.5388 18.49 19.4797C18.4662 19.4206 18.4305 19.3671 18.3851 19.3223C18.3397 19.2775 18.2857 19.2426 18.2263 19.2195C18.1669 19.1964 18.1034 19.1857 18.0397 19.1881C17.5996 19.1758 17.1712 19.044 16.8004 18.8066C16.4296 18.5693 16.1304 18.2354 15.935 17.8409C15.8806 17.7304 15.834 17.6161 15.7958 17.499C15.7102 17.2347 15.67 16.9578 15.677 16.6801C15.6922 16.0855 15.551 15.4974 15.2676 14.9746C15.2246 14.9009 15.1795 14.8231 15.1345 14.7535C15.0894 14.6839 15.0403 14.6183 14.9891 14.5487C14.8394 14.3499 14.6669 14.1691 14.4752 14.0103C14.1411 13.7297 13.755 13.5177 13.3389 13.3864C12.9228 13.2551 12.4849 13.2071 12.0502 13.2452C11.6156 13.2832 11.1927 13.4065 10.8057 13.608C10.4187 13.8096 10.0752 14.0854 9.79491 14.4198C9.98872 14.7273 10.1376 15.061 10.2371 15.4107C10.4509 15.0261 10.7659 14.7073 11.1478 14.4888C11.5298 14.2704 11.9643 14.1606 12.4041 14.1713C12.844 14.1821 13.2726 14.313 13.6434 14.5498C14.0143 14.7867 14.3133 15.1205 14.508 15.5151C14.5618 15.6257 14.6076 15.7399 14.6452 15.857" fill="#008071"/>
</g>
<defs>
<clipPath id="clip0">
<rect width="45.2308" height="56" fill="white"/>
</clipPath>
</defs>
</svg>
