<svg width="24" height="24" viewBox="0 0 24 24" fill="none" xmlns="http://www.w3.org/2000/svg">
<path d="M12.2972 23.2607C18.3522 23.2607 23.2608 18.3521 23.2608 12.297C23.2608 6.24198 18.3522 1.33337 12.2972 1.33337C6.2421 1.33337 1.3335 6.24198 1.3335 12.297C1.3335 18.3521 6.2421 23.2607 12.2972 23.2607Z" stroke="#0D8570" stroke-width="1.44481" stroke-linecap="round" stroke-linejoin="round"/>
<path d="M18.3575 9.32263C17.5498 9.32263 16.7751 9.64349 16.204 10.2146C15.6329 10.7858 15.312 11.5604 15.312 12.3681C15.312 13.1758 15.6329 13.9504 16.204 14.5216C16.7751 15.0927 17.5498 15.4136 18.3575 15.4136" stroke="#0D8570" stroke-width="1.44481" stroke-linecap="round" stroke-linejoin="round"/>
<path d="M6.23682 15.3628C7.04452 15.3628 7.81915 15.0419 8.39028 14.4708C8.96142 13.8997 9.28228 13.125 9.28228 12.3173C9.28228 11.5096 8.96142 10.735 8.39028 10.1638C7.81915 9.59271 7.04452 9.27185 6.23682 9.27185" stroke="#0D8570" stroke-width="1.44481" stroke-linecap="round" stroke-linejoin="round"/>
<path d="M12.2971 15.2715C13.9679 15.2715 15.3223 13.9171 15.3223 12.2464C15.3223 10.5756 13.9679 9.22119 12.2971 9.22119C10.6264 9.22119 9.27197 10.5756 9.27197 12.2464C9.27197 13.9171 10.6264 15.2715 12.2971 15.2715Z" stroke="#0D8570" stroke-width="1.44481" stroke-linecap="round" stroke-linejoin="round"/>
</svg>
