<svg width="41" height="24" viewBox="0 0 41 24" fill="none" xmlns="http://www.w3.org/2000/svg">
<path d="M39.1283 19.9853C37.6901 19.9797 36.2806 19.5819 35.0516 18.8348C33.8226 18.0877 32.8207 17.0195 32.1536 15.7453C31.8003 16.87 31.2925 17.9402 30.6449 18.9253C31.6617 20.1986 32.9516 21.2271 34.4194 21.9347C35.8872 22.6423 37.4953 23.0109 39.1248 23.0133C39.5155 22.9944 39.884 22.826 40.1539 22.5428C40.4237 22.2596 40.5743 21.8834 40.5743 21.4922C40.5743 21.101 40.4237 20.7248 40.1539 20.4416C39.884 20.1585 39.5155 19.99 39.1248 19.9711L39.1283 19.9853ZM31.666 9.34306C31.7994 8.96225 31.9625 8.59248 32.1536 8.23715C32.8204 6.9627 33.8222 5.89434 35.0513 5.1472C36.2803 4.40005 37.69 4.00245 39.1283 3.99722C39.519 3.97839 39.8875 3.80991 40.1574 3.52671C40.4273 3.24352 40.5778 2.86734 40.5778 2.47615C40.5778 2.08496 40.4273 1.70878 40.1574 1.42559C39.8875 1.14239 39.519 0.973915 39.1283 0.955078C37.4985 0.957367 35.89 1.3263 34.4221 2.03456C32.9542 2.74282 31.6645 3.77225 30.6484 5.0466C30.4788 5.25507 30.3198 5.47413 30.1644 5.69319C30.0089 5.91226 29.8535 6.16312 29.7121 6.39985C28.7229 8.10002 28.2046 10.0331 28.2105 12.0001C28.2089 13.3118 27.8875 14.6034 27.2742 15.763C26.6072 17.0362 25.6045 18.1027 24.3748 18.8468C23.145 19.5908 21.7351 19.9842 20.2977 19.9842C18.8604 19.9842 17.4504 19.5908 16.2207 18.8468C14.9909 18.1027 13.9883 17.0362 13.3213 15.763C12.9694 16.8883 12.4616 17.9587 11.8126 18.943C12.829 20.2161 14.1191 21.2441 15.5871 21.9506C17.0551 22.657 18.6633 23.0239 20.2924 23.0239C21.9216 23.0239 23.5298 22.657 24.9978 21.9506C26.4658 21.2441 27.7559 20.2161 28.7723 18.943C28.9419 18.7345 29.1009 18.5154 29.2528 18.2928C29.4047 18.0702 29.5637 17.8264 29.7051 17.5862C30.6952 15.8938 31.216 13.9679 31.2138 12.0071C31.213 11.1025 31.3647 10.2043 31.6625 9.35013L31.666 9.34306ZM1.45304 4.01136C2.88915 4.01664 4.29673 4.41275 5.52482 5.1572C6.75292 5.90165 7.7552 6.96636 8.42418 8.23715C8.77534 7.11161 9.28323 6.04112 9.93289 5.0572C8.91648 3.7835 7.62658 2.75474 6.15871 2.0471C4.69083 1.33947 3.08258 0.971077 1.45304 0.969211C1.06231 0.988049 0.693809 1.15653 0.423941 1.43972C0.154072 1.72291 0.00353327 2.0991 0.00353327 2.49028C0.00353327 2.88147 0.154072 3.25765 0.423941 3.54085C0.693809 3.82404 1.06231 3.99252 1.45304 4.01136ZM12.8302 9.34306C12.9639 8.96293 13.1257 8.59327 13.3142 8.23715C13.9803 6.9629 14.9827 5.89542 16.2126 5.15055C17.4424 4.40569 18.8528 4.01189 20.2907 4.01189C21.7285 4.01189 23.1389 4.40569 24.3688 5.15055C25.5986 5.89542 26.601 6.9629 27.2671 8.23715C27.6168 7.11102 28.1247 6.04033 28.7758 5.0572C27.7602 3.78285 26.4703 2.7538 25.0023 2.04654C23.5342 1.33928 21.9255 0.971998 20.296 0.971998C18.6664 0.971998 17.0578 1.33928 15.5897 2.04654C14.1216 2.7538 12.8318 3.78285 11.8161 5.0572C11.6465 5.26567 11.4875 5.48473 11.3321 5.70379C11.1766 5.92285 11.0247 6.17372 10.8833 6.41045C9.89325 8.10416 9.37248 10.0311 9.37463 11.993C9.37567 12.8968 9.22272 13.7941 8.92237 14.6465C8.78665 15.0315 8.62004 15.4049 8.42418 15.763C7.75651 17.0367 6.75442 18.1044 5.52558 18.8514C4.29674 19.5985 2.88758 19.9965 1.44951 20.0029C1.05877 20.0218 0.690276 20.1903 0.420408 20.4734C0.150539 20.7566 0 21.1328 0 21.524C0 21.9152 0.150539 22.2914 0.420408 22.5746C0.690276 22.8578 1.05877 23.0262 1.44951 23.0451C3.07896 23.0427 4.68704 22.6741 6.15484 21.9665C7.62263 21.2589 8.9126 20.2304 9.92935 18.9571C10.099 18.7486 10.2579 18.5296 10.4134 18.307C10.5689 18.0844 10.7208 17.8406 10.8657 17.6003C11.8531 15.907 12.3726 13.9815 12.3708 12.0213C12.3695 11.1163 12.5224 10.2178 12.8231 9.36426" fill="#0B8470"/>
</svg>
