<svg width="600" height="121" viewBox="0 0 600 121" fill="none" xmlns="http://www.w3.org/2000/svg">
<g clip-path="url(#clip0_332_6)">
<path d="M584.6 54.8644V94.2248H570.15V57.4651C570.15 48.5128 566.3 43.5114 558.8 43.5114C551.3 43.5114 546.35 48.7628 544.95 57.5651C544.55 59.6657 544.45 62.9165 544.45 69.7683V94.1747H530V31.6583H542.8C542.85 32.2085 543.15 37.8099 543.15 38.16C543.15 38.6101 543.7 38.8602 544.05 38.5601C549.35 34.359 555.2 30.458 563.35 30.458C576.75 30.458 584.6 39.5104 584.6 54.8644Z" fill="black"/>
<path d="M506.7 31.7086L506.25 38.8605C506.2 39.3106 505.65 39.5607 505.35 39.2606C503.6 37.6102 497.15 30.5083 486.2 30.5083C470.5 30.5083 458.95 44.0619 458.95 62.4667C458.95 81.1216 470.4 94.7252 486.2 94.7252C496.75 94.7252 503.2 87.8734 504.4 86.373C504.75 85.9729 505.4 86.2229 505.4 86.7231C505.25 88.6236 505 93.3748 503.4 97.4259C501.4 102.527 496.9 107.278 487.85 107.278C480.4 107.278 473.8 104.428 467.55 98.3261L460 108.679C466.85 116.431 477.65 120.782 489.4 120.782C508.3 120.782 519.65 107.829 519.65 86.6731V31.7086H506.7ZM489.3 81.6217C479.95 81.6217 473.35 73.5196 473.35 62.4667C473.35 51.4138 479.95 43.5117 489.3 43.5117C498.65 43.5117 505.25 51.3638 505.25 62.4667C505.2 73.5696 498.6 81.6217 489.3 81.6217Z" fill="black"/>
<path d="M428.75 75.67C428.75 87.5231 418.8 95.4752 404.2 95.4752C392.75 95.4752 382.55 91.024 376.45 84.6723L381.2 73.3693C385.8 77.5204 393.2 83.472 403.75 83.472C411.1 83.472 415.35 80.2211 415.35 76.1201C415.35 71.3688 409.5 70.1185 402.5 68.7681C392.55 66.6676 379.35 63.2667 379.35 49.7131C379.35 38.3602 388.55 30.5581 402.15 30.5581C412.6 30.5581 421.6 34.5592 427.8 39.7605L420.7 49.7131C414.7 44.9619 408.4 42.6113 402.15 42.6113C395.9 42.6113 392.8 45.212 392.8 48.9629C392.8 54.2143 399.55 55.5647 404.5 56.5649C416.95 58.9656 428.75 62.7166 428.75 75.67Z" fill="black"/>
<path d="M217.45 30.458C199.8 30.458 187.1 44.1616 187.1 62.9665C187.1 81.7715 199.8 95.4751 217.45 95.4751C235.1 95.4751 247.85 81.7715 247.85 62.9665C247.85 44.1616 235.15 30.458 217.45 30.458ZM217.45 82.3716C208.1 82.3716 201.5 74.4196 201.5 62.9165C201.5 51.4635 207.95 43.4614 217.45 43.4614C226.9 43.4614 233.4 51.4135 233.4 62.9165C233.4 74.4196 226.8 82.3716 217.45 82.3716Z" fill="black"/>
<path d="M252.95 62.9665C252.95 44.4117 265.65 30.458 282.6 30.458C296.05 30.458 305.9 37.2098 310.5 49.9131L297.7 54.7644C294.2 46.9123 289.6 43.5614 282.65 43.5614C273.95 43.5614 267.45 51.7636 267.45 63.0166C267.45 74.2195 273.9 82.4717 282.65 82.4717C289.65 82.4717 294.2 79.1208 297.7 71.2687L310.5 76.12C305.9 88.8233 296.05 95.5751 282.6 95.5751C265.65 95.4751 252.95 81.5214 252.95 62.9665Z" fill="black"/>
<path d="M175.7 2.65088C175.45 2.65088 175.15 2.70089 174.9 2.85093L165.5 7.85224C165.3 7.95227 165.2 8.15232 165.2 8.35238V38.1102C165.2 38.6103 164.6 38.8104 164.25 38.5103C162.85 37.31 159.6 34.2592 155.1 32.1586C152.75 31.0583 149.3 30.4582 146.15 30.4582C130.35 30.4582 118.9 44.1618 118.9 62.9667C118.9 81.7717 130.35 95.4753 146.15 95.4753C154.45 95.4753 160.7 91.1241 164.5 87.2231C164.75 86.973 164.9 86.823 165.15 86.5729C165.5 86.2228 166.1 86.4229 166.1 86.923L166.6 94.2249H179.65V3.05098C179.65 2.85093 179.5 2.65088 179.25 2.65088H175.7ZM149.25 82.3718C139.8 82.3718 133.3 74.4197 133.3 62.9167C133.3 51.4137 139.95 43.5116 149.25 43.5116C158.6 43.5116 165.2 51.4637 165.2 62.9667C165.2 74.4197 158.75 82.3718 149.25 82.3718Z" fill="black"/>
<path d="M445.75 31.9088L436.7 36.71C436.5 36.81 436.4 37.0101 436.4 37.2102V94.2251H450.85V32.0588C450.85 31.8587 450.7 31.6587 450.45 31.6587H446.55C446.25 31.7087 446 31.7587 445.75 31.9088Z" fill="black"/>
<path d="M443.6 21.5559C448.4 21.5559 452.3 17.6549 452.3 12.8537C452.3 8.05239 448.4 4.15137 443.6 4.15137C438.8 4.15137 434.9 8.05239 434.9 12.8537C434.9 17.6549 438.8 21.5559 443.6 21.5559Z" fill="black"/>
<path d="M371.25 31.6587V65.6176C371.25 91.3744 356.85 95.4254 344 95.4254C331.15 95.4254 316.75 91.3244 316.75 65.6176V31.6587H331.15V69.2186C331.15 72.8695 332.05 82.372 344 82.372C355.95 82.372 356.85 72.9195 356.85 69.2186V31.6587H371.25Z" fill="black"/>
<path d="M69.75 69.7684V94.5249C69.75 95.8253 68.7 96.8755 67.4 96.8755H2.35C1.05 96.8755 0 95.8253 0 94.5249V29.5078C0 28.2075 1.05 27.1572 2.35 27.1572H27.05V67.4178C27.05 68.7181 28.1 69.7684 29.4 69.7684H69.75Z" fill="#4C00FF"/>
<path d="M96.85 34.8591C96.85 55.6645 84.7 69.7182 69.75 69.7683V43.5614C69.75 42.8112 69.45 42.061 68.9 41.5608L55.3 27.9573C54.75 27.4071 54.05 27.107 53.3 27.107H27.1V2.40056C27.1 1.10021 28.15 0.0499382 29.45 0.0499382H66.1C83.5 -7.49225e-05 96.85 14.0036 96.85 34.8591Z" fill="#FF5252"/>
<path d="M68.9 41.5107C69.45 42.0609 69.75 42.761 69.75 43.5112V69.7181H29.45C28.15 69.7181 27.1 68.6679 27.1 67.3675V27.1069H53.3C54.05 27.1069 54.8 27.407 55.3 27.9572L68.9 41.5107Z" fill="black"/>
</g>
<defs>
<clipPath id="clip0_332_6">
<rect width="600" height="120.732" fill="white"/>
</clipPath>
</defs>
</svg>
