<svg width="600" height="182" viewBox="0 0 600 182" fill="none" xmlns="http://www.w3.org/2000/svg">
<path d="M372.146 141.477C337.32 167.146 286.843 180.841 243.383 180.841C182.445 180.841 127.586 158.302 86.0821 120.816C82.8213 117.869 85.743 113.851 89.656 116.147C134.446 142.207 189.828 157.885 247.035 157.885C285.617 157.885 328.06 149.903 367.085 133.338C372.98 130.833 377.911 137.199 372.146 141.477Z" fill="#FF9900"/>
<path d="M386.624 124.912C382.189 119.225 357.198 122.225 345.981 123.556C342.564 123.973 342.042 120.999 345.12 118.86C365.024 104.852 397.684 108.895 401.493 113.59C405.302 118.312 400.502 151.051 381.798 166.676C378.928 169.076 376.189 167.798 377.467 164.616C381.667 154.129 391.084 130.625 386.624 124.912Z" fill="#FF9900"/>
<path d="M346.764 19.9663V6.34916C346.764 4.28834 348.329 2.90576 350.207 2.90576H411.171C413.127 2.90576 414.693 4.31443 414.693 6.34916V18.0098C414.667 19.9663 413.023 22.5227 410.101 26.5661L378.511 71.6695C390.25 71.3826 402.641 73.1304 413.284 79.1302C415.684 80.4867 416.336 82.4693 416.519 84.4258V98.9559C416.519 100.938 414.327 103.26 412.032 102.06C393.276 92.2256 368.363 91.1561 347.624 102.165C345.511 103.312 343.294 101.017 343.294 99.0342V85.2345C343.294 83.0171 343.32 79.2346 345.538 75.8694L382.137 23.3836H350.285C348.329 23.3836 346.764 22.001 346.764 19.9663Z" fill="#221F1F"/>
<path d="M124.377 104.929H105.83C104.056 104.799 102.647 103.469 102.517 101.773V6.5837C102.517 4.6794 104.108 3.16637 106.09 3.16637H123.386C125.186 3.24458 126.62 4.62721 126.751 6.34891V18.7921H127.09C131.603 6.76629 140.081 1.15771 151.507 1.15771C163.115 1.15771 170.367 6.76629 175.585 18.7921C180.071 6.76629 190.271 1.15771 201.201 1.15771C208.975 1.15771 217.479 4.36634 222.671 11.5662C228.54 19.5747 227.34 31.2093 227.34 41.4091L227.314 101.486C227.314 103.39 225.723 104.929 223.74 104.929H205.219C203.367 104.799 201.88 103.312 201.88 101.486V51.0349C201.88 47.0176 202.245 37.0005 201.358 33.1918C199.975 26.8007 195.828 25.0007 190.454 25.0007C185.967 25.0007 181.271 28.0006 179.367 32.8005C177.463 37.6004 177.645 45.635 177.645 51.0349V101.486C177.645 103.39 176.054 104.929 174.072 104.929H155.55C153.672 104.799 152.211 103.312 152.211 101.486L152.185 51.0349C152.185 40.4178 153.933 24.792 140.759 24.792C127.429 24.792 127.951 40.0265 127.951 51.0349V101.486C127.951 103.39 126.36 104.929 124.377 104.929Z" fill="#221F1F"/>
<path d="M467.179 1.15771C494.7 1.15771 509.595 24.792 509.595 54.8436C509.595 83.8777 493.134 106.912 467.179 106.912C440.153 106.912 425.44 83.2777 425.44 53.8262C425.44 24.192 440.336 1.15771 467.179 1.15771ZM467.335 20.5921C453.666 20.5921 452.805 39.2178 452.805 50.8263C452.805 62.4608 452.622 87.295 467.179 87.295C481.552 87.295 482.23 67.2607 482.23 55.0522C482.23 47.0176 481.891 37.4178 479.465 29.8006C477.378 23.1747 473.231 20.5921 467.335 20.5921Z" fill="#221F1F"/>
<path d="M545.281 104.929H526.812C524.96 104.799 523.473 103.312 523.473 101.486L523.447 6.27065C523.603 4.52286 525.142 3.16637 527.021 3.16637H544.212C545.829 3.24458 547.159 4.34026 547.525 5.82719V20.3834H547.864C553.055 7.36628 560.333 1.15771 573.141 1.15771C581.463 1.15771 589.576 4.15766 594.793 12.3749C599.645 19.9921 599.645 32.8005 599.645 42.009V101.93C599.437 103.599 597.897 104.929 596.071 104.929H577.472C575.776 104.799 574.368 103.547 574.185 101.93V50.2263C574.185 39.8178 575.385 24.5833 562.577 24.5833C558.064 24.5833 553.916 27.6093 551.855 32.2005C549.246 38.0178 548.907 43.809 548.907 50.2263V101.486C548.881 103.39 547.264 104.929 545.281 104.929Z" fill="#221F1F"/>
<path d="M298.165 59.4608V55.4435C284.756 55.4435 270.591 58.313 270.591 74.1213C270.591 82.1299 274.739 87.5559 281.861 87.5559C287.078 87.5559 291.747 84.3472 294.695 79.1299C298.347 72.7127 298.165 66.6867 298.165 59.4608ZM316.869 104.669C315.643 105.764 313.869 105.842 312.486 105.112C306.33 99.9991 305.234 97.6252 301.843 92.7471C291.669 103.129 284.469 106.234 271.27 106.234C255.67 106.234 243.514 96.6078 243.514 77.33C243.514 62.2781 251.679 52.0262 263.287 47.0176C273.356 42.5829 287.417 41.8003 298.165 40.5742V38.1743C298.165 33.7657 298.504 28.5484 295.921 24.7398C293.652 21.3224 289.321 19.9138 285.513 19.9138C278.443 19.9138 272.13 23.5398 270.591 31.0527C270.278 32.7222 269.052 34.3657 267.383 34.4439L249.383 32.5135C247.87 32.1744 246.2 30.9483 246.618 28.6267C250.766 6.81842 270.461 0.244629 288.095 0.244629C297.121 0.244629 308.912 2.64458 316.034 9.47922C325.06 17.9051 324.199 29.1484 324.199 41.3829V70.2867C324.199 78.9734 327.799 82.782 331.19 87.4776C332.39 89.1471 332.651 91.1558 331.138 92.4079C327.355 95.5644 320.625 101.434 316.921 104.721L316.869 104.669Z" fill="#221F1F"/>
<path d="M55.0132 59.4608V55.4435C41.6048 55.4435 27.4399 58.313 27.4399 74.1213C27.4399 82.1299 31.5876 87.5559 38.7092 87.5559C43.9265 87.5559 48.5959 84.3472 51.5437 79.1299C55.1958 72.7127 55.0132 66.6867 55.0132 59.4608ZM73.7172 104.669C72.4911 105.764 70.7172 105.842 69.3346 105.112C63.1783 99.9991 62.0826 97.6252 58.6914 92.7471C48.5177 103.129 41.3179 106.234 28.1181 106.234C12.5184 106.234 0.362183 96.6078 0.362183 77.33C0.362183 62.2781 8.52723 52.0262 20.1357 47.0176C30.205 42.5829 44.2656 41.8003 55.0132 40.5742V38.1743C55.0132 33.7657 55.3523 28.5484 52.7698 24.7398C50.5003 21.3224 46.1699 19.9138 42.3613 19.9138C35.2919 19.9138 28.979 23.5398 27.4399 31.0527C27.1268 32.7222 25.9008 34.3657 24.2312 34.4439L6.23163 32.5135C4.71861 32.1744 3.04908 30.9483 3.46646 28.6267C7.6142 6.81842 27.3094 0.244629 44.9439 0.244629C53.9697 0.244629 65.7608 2.64458 72.8824 9.47922C81.9083 17.9051 81.0474 29.1484 81.0474 41.3829V70.2867C81.0474 78.9734 84.6474 82.782 88.0386 87.4776C89.2386 89.1471 89.4995 91.1558 87.9864 92.4079C84.2039 95.5644 77.4736 101.434 73.7693 104.721L73.7172 104.669Z" fill="#221F1F"/>
</svg>
