<svg width="520" height="178" viewBox="0 0 520 178" fill="none" xmlns="http://www.w3.org/2000/svg">
<path d="M363.4 171.75H351.618V175.241H386.527V171.75H377.364V111.096C374.745 114.15 369.945 114.15 365.145 114.15H353.364V117.641H363.4V171.75Z" fill="#003C71"/>
<path d="M144.345 171.75H132.564V175.241H167.473V171.75H158.309V111.096C155.691 114.15 150.891 114.15 146.091 114.15H134.745V117.641H143.909L144.345 171.75Z" fill="#003C71"/>
<path d="M403.545 171.75H392.2V175.241H427.545V171.75H417.509V118.078H442.382V171.75H433.218V175.241H467.691V171.75H456.782V111.096C453.727 114.15 448.927 114.15 444.127 114.15H417.945V94.0777C417.945 80.5504 422.745 69.6413 438.455 69.6413C444.564 69.6413 448.927 72.2595 448.927 74.8777C448.927 76.6231 447.618 77.0595 446.309 77.9322C444.127 78.8049 442.818 80.9868 442.818 83.6049C442.818 87.5322 446.309 90.1504 449.8 90.1504C454.6 90.1504 458.091 86.2231 458.091 80.9868C458.091 74.4413 451.545 66.1504 437.582 66.1504C413.145 66.1504 404.418 85.7868 404.418 104.55V114.15H391.764V117.641H404.418V171.75" fill="#003C71"/>
<path d="M36.1273 130.732C50.9636 133.787 57.9455 142.951 57.9455 152.987C57.9455 164.332 48.7818 173.496 34.8182 173.496C20.8545 173.496 6.89091 162.151 4.7091 138.587H0.78182V176.114H4.7091C5.14546 173.496 6.01819 171.751 9.07273 171.751C14.7455 171.751 20.8545 177.423 34.8182 177.423C55.7636 177.423 67.1091 164.769 67.1091 145.132C67.1091 129.86 59.6909 118.514 39.6182 113.714L31.7636 111.969C13.8727 108.041 8.63637 99.7505 8.63637 91.4596C8.63637 80.1142 17.3636 72.2596 28.2727 72.2596C44.8545 72.2596 54.8909 85.7869 57.0727 102.369H61.4364V71.3869H57.5091C57.0727 73.1324 56.2 75.3142 53.1455 75.3142C47.9091 75.3142 43.9818 67.896 28.2727 67.896C12.5636 67.896 0.345459 79.2415 0.345459 96.2596C0.345459 114.587 9.50909 123.751 28.2727 128.551L36.1273 130.732Z" fill="#003C71"/>
<path d="M316.273 163.896C316.273 173.932 323.255 177.86 332.418 177.86C343.327 177.86 347.255 171.75 349 167.823L346.382 166.078C344.636 169.132 341.582 173.06 336.782 173.06C332.855 173.06 330.236 171.314 330.236 165.205V118.078H346.382V114.587H330.236V96.2595H327.182C324.564 110.66 318.018 114.587 304.491 114.587V118.078H316.273V163.896Z" fill="#003C71"/>
<path d="M272.2 171.75H282.673V126.805C282.673 119.823 278.745 116.769 273.945 116.769C264.782 116.769 258.236 125.496 255.182 129.86V172.187H265.655V175.241H230.309V171.75H241.218V118.078H230.309V114.587H241.655C248.636 114.587 252.127 114.587 254.309 111.532V123.75H254.745C257.8 120.26 264.782 111.532 277 111.532C290.091 111.532 296.636 119.823 296.636 130.296V172.187H307.545V175.241H272.636L272.2 171.75Z" fill="#003C71"/>
<path d="M124.709 155.169C123.4 163.023 116.855 172.623 105.945 172.623C95.4727 172.623 90.2364 166.514 90.2364 152.55V138.587C90.2364 125.06 95.0364 115.459 106.382 115.459C112.927 115.459 116.855 118.95 116.855 121.569C116.855 122.878 115.982 123.75 115.109 124.623C113.8 125.932 113.364 127.241 113.364 128.987C113.364 132.478 116.418 135.096 119.909 135.096H120.345C124.273 135.096 127.764 132.041 127.764 126.805C127.764 119.387 119.036 111.532 105.509 111.532C88.4909 111.532 74.9636 124.623 74.9636 144.696C74.9636 162.587 84.1273 177.423 104.2 177.423C117.727 177.423 126.455 166.514 128.2 154.732H124.709" fill="#003C71"/>
<path d="M516.564 155.169C515.255 163.023 508.709 172.623 497.8 172.623C487.327 172.623 482.091 166.514 482.091 152.55V138.587C482.091 125.06 486.891 115.459 498.236 115.459C504.782 115.459 508.709 118.95 508.709 121.569C508.709 122.878 507.836 123.75 506.964 124.623C506.091 125.932 505.218 127.241 505.218 128.987C505.218 132.041 507.836 135.096 511.764 135.096C515.691 135.096 519.182 132.041 519.182 126.805C519.182 119.387 510.455 111.532 496.927 111.532C479.909 111.532 466.382 124.623 466.382 144.696C466.382 162.587 475.545 177.423 495.618 177.423C509.145 177.423 517.873 166.514 519.618 154.732L516.564 155.169Z" fill="#003C71"/>
<path d="M221.145 154.732C219.4 163.46 212.855 172.623 202.818 172.623C192.782 172.623 187.109 166.078 187.109 153.86V139.46H224.636C225.509 139.46 225.945 139.023 225.945 138.587V138.151C225.945 137.278 225.945 136.841 225.945 135.969C225.945 126.805 217.655 111.969 199.327 111.969C183.182 111.969 171.836 127.678 171.836 144.696C171.836 165.205 184.055 177.423 200.2 177.423C212.855 177.423 222.455 168.26 225.073 154.732H221.145ZM212.855 134.66C212.855 135.096 212.418 135.532 211.982 135.532H188.418V130.732C188.418 121.132 193.218 115.023 200.636 115.023C208.055 115.023 212.855 120.696 212.855 130.732V134.66Z" fill="#003C71"/>
<path d="M91.9818 4.62323H95.9091C109.873 4.62323 117.291 12.4778 117.291 22.5141C117.291 36.4778 107.691 41.2778 96.3455 41.2778H91.9818V4.62323ZM78.0182 86.6596H68.4182V90.1505H106.818C119.909 90.1505 135.618 82.7323 135.618 65.2778C135.618 51.3141 123.4 43.896 111.182 43.4596V42.5869C121.655 41.7141 131.691 35.1687 131.691 21.205C131.691 9.42323 121.655 1.13232 103.327 1.13232H68.4182V4.18687H78.0182V86.6596ZM91.9818 44.3323H98.5273C112.491 44.3323 120.345 53.496 120.345 65.2778C120.345 77.9323 112.927 87.0959 99.8364 87.0959H91.9818V44.3323Z" fill="#003C71"/>
<path d="M141.291 63.5324C141.291 79.2415 152.2 92.3324 168.345 92.3324C184.491 92.3324 195.4 79.2415 195.4 63.5324C195.4 47.8233 184.491 34.7324 168.345 34.7324C152.2 34.7324 141.291 47.387 141.291 63.5324ZM181.436 66.587C181.436 77.4961 180.127 88.4051 167.909 88.4051C155.691 88.4051 154.382 77.4961 154.382 66.587V60.0415C154.382 49.1324 155.255 38.2233 167.909 38.2233C180.564 38.2233 181.436 49.1324 181.436 60.0415V66.587Z" fill="#003C71"/>
<path d="M279.182 63.5324C279.182 79.2415 290.091 92.3324 306.236 92.3324C321.945 92.3324 333.291 79.2415 333.291 63.5324C333.291 47.8233 322.382 34.7324 306.236 34.7324C290.091 34.7324 279.182 47.8233 279.182 63.5324ZM318.891 66.587C318.891 77.4961 317.582 88.4051 305.364 88.4051C293.145 88.4051 291.836 77.4961 291.836 66.587V60.0415C291.836 49.1324 292.709 38.2233 305.364 38.2233C318.018 38.2233 318.891 49.1324 318.891 60.0415V66.587Z" fill="#003C71"/>
<path d="M370.818 86.6596H378.236V48.696C378.236 42.1505 374.309 39.9687 369.945 39.9687C364.273 39.9687 358.164 45.6414 355.545 51.3142V86.6596H364.709V90.1505H332.418V86.6596H342.455V40.4051H332.418V36.9142H342.018C347.691 36.9142 352.491 36.9142 354.673 34.296V44.3323H355.109C359.909 38.2233 366.891 33.8596 374.745 33.8596C386.964 33.8596 391.327 42.5869 391.327 50.0051V86.6596H398.745V90.1505H370.818V86.6596Z" fill="#003C71"/>
<path d="M220.709 68.3323C228.127 69.205 231.182 73.5686 231.182 78.3686C231.182 84.9141 225.945 88.405 219.836 88.405C208.491 88.405 204.127 78.3686 203.691 71.8232H200.636L201.073 91.4595H203.691C204.127 89.2777 204.564 88.8414 205.873 88.8414C208.491 88.8414 211.545 92.3323 219.836 92.3323C232.055 92.3323 239.036 84.9141 239.036 73.5686C239.036 65.2777 234.236 58.2959 224.2 56.5504L218.091 55.6777C209.8 54.3686 207.182 51.7504 207.182 46.9504C207.182 42.1504 211.109 38.2232 218.091 38.2232C225.945 38.2232 230.309 43.0232 232.055 50.8777H234.673L234.236 35.1686H231.618C231.618 36.4777 230.745 37.3504 229.873 37.3504C227.691 37.3504 224.636 34.2959 217.655 34.2959C208.055 34.2959 201.073 40.8414 201.073 50.4414C201.073 62.2232 208.927 66.5868 217.218 67.8959L220.709 68.3323Z" fill="#003C71"/>
<path d="M277.436 81.8596C276.127 84.0415 273.509 87.096 269.582 87.096C266.091 87.096 263.036 85.7869 263.036 80.5505V40.4051H277.436V36.9142H263.036V18.5869H260.418C258.236 31.2415 251.255 36.9142 240.782 36.9142V40.4051H249.945V80.5505C249.945 89.2778 256.055 92.7687 264.782 92.7687C272.636 92.7687 277 88.8415 279.182 85.3505L277.436 81.8596Z" fill="#003C71"/>
</svg>
