<svg width="600" height="129" viewBox="0 0 600 129" fill="none" xmlns="http://www.w3.org/2000/svg">
<g clip-path="url(#clip0_317_879)">
<path d="M327.093 124.467V3.54169H360.142V93.5614L397.242 93.5623V124.467H327.093Z" fill="#231F20"/>
<path d="M219.409 124.467V3.54169H252.458V45.9431H285.782V3.54169H318.831V124.467H285.782V79.4825H252.458V124.467H219.409Z" fill="#231F20"/>
<path d="M107.115 3.5586L59.3633 61.146L113.924 124.51L70.1825 124.487L33.1215 81.3491H33.0472L33.049 124.467H0V3.54163H33.0472V39.7617L32.7899 39.792L64.2665 3.5586H107.115Z" fill="#231F20"/>
<path d="M151.568 93.994C167.068 93.994 179.634 80.1073 179.634 62.9766C179.634 45.8469 167.068 31.9599 151.568 31.9599C136.067 31.9599 123.5 45.8469 123.5 62.9766C123.5 80.1073 136.067 93.994 151.568 93.994ZM89.2146 62.9991C89.2146 28.2054 117.131 -0.00237274 151.568 -0.00237274C186.004 -0.00237274 213.92 28.2054 213.92 62.9991C213.92 97.7935 186.004 126 151.568 126C117.131 126 89.2146 97.7935 89.2146 62.9991Z" fill="#231F20"/>
<path d="M437.167 3.54169H471.123V31.4018L437.941 31.4734L437.821 50.5601H468.476V77.6304H437.867L437.892 96.0851H471.41V124.467H437.454H404.033V3.54169H437.167Z" fill="#231F20"/>
<path d="M520.435 54.8509C526.865 54.8509 532.08 49.6368 532.08 43.2044C532.08 36.7718 526.865 31.5578 520.435 31.5578H511.071V54.8232L520.435 54.8509ZM539.832 76.143L574.222 124.532L538.136 124.469L511.183 87.3441V124.397H478.802V3.49601H520.233C556.685 3.49601 579.819 49.2289 539.832 76.143Z" fill="#231F20"/>
<path d="M590.319 116.522C591.584 116.522 592.3 116.247 592.3 114.815C592.3 113.66 590.84 113.66 589.741 113.66H587.292V116.522H590.319ZM594.338 123.019H591.584L589.053 118.229H587.292V123.019H584.758V111.677H590.264C592.878 111.677 594.666 112.146 594.666 115.145C594.666 117.238 593.594 118.091 591.584 118.229L594.338 123.019ZM597.42 117.486C597.42 112.585 593.787 109.118 589.108 109.118C584.345 109.118 580.795 112.585 580.795 117.486C580.795 122.33 584.345 125.798 589.108 125.798C593.787 125.798 597.42 122.33 597.42 117.486ZM578.208 117.486C578.208 111.402 583.023 106.529 589.108 106.529C595.164 106.529 600.007 111.402 600.007 117.486C600.007 123.514 595.164 128.386 589.108 128.386C583.023 128.386 578.208 123.514 578.208 117.486Z" fill="#231F20"/>
</g>
<defs>
<clipPath id="clip0_317_879">
<rect width="600" height="128.386" fill="white"/>
</clipPath>
</defs>
</svg>
