<svg width="552" height="213" viewBox="0 0 552 213" fill="none" xmlns="http://www.w3.org/2000/svg">
<g clip-path="url(#clip0_317_872)">
<path d="M532.595 159.405H534.436C535.724 159.405 536.736 159.221 537.288 158.945C537.84 158.669 538.117 158.025 538.117 157.289C538.117 156.552 537.84 155.908 537.38 155.724C536.92 155.356 536 155.264 534.712 155.264H532.595V159.405ZM531.215 154.068H535.908C537.104 154.068 538.024 154.344 538.761 154.896C539.497 155.356 539.773 156.092 539.773 157.104C539.773 158.853 538.761 159.957 536.644 160.325C537.472 160.785 538.024 161.338 538.393 161.89C538.761 162.35 539.313 163.638 540.233 165.663H538.485C537.38 163.362 536.644 161.982 536 161.43C535.448 160.877 534.436 160.509 533.147 160.509H532.503V165.663H531.123V154.068H531.215ZM545.11 159.773C545.11 157.104 544.19 154.804 542.35 152.963C540.509 151.031 538.209 150.111 535.632 150.111C532.963 150.111 530.755 151.031 528.914 152.963C527.074 154.804 526.153 157.104 526.153 159.773C526.153 162.442 527.074 164.65 528.914 166.583C530.755 168.423 532.963 169.436 535.632 169.436C538.209 169.436 540.509 168.516 542.35 166.583C544.19 164.65 545.11 162.35 545.11 159.773ZM524.681 159.773C524.681 156.736 525.693 154.16 527.902 151.951C530.018 149.835 532.595 148.822 535.54 148.822C538.577 148.822 541.153 149.927 543.27 151.951C545.386 154.16 546.491 156.736 546.491 159.773C546.491 162.81 545.386 165.387 543.27 167.595C541.153 169.712 538.577 170.908 535.54 170.908C532.595 170.908 530.018 169.804 527.902 167.595C525.785 165.387 524.681 162.718 524.681 159.773Z" fill="#0095DA"/>
<path d="M485.57 163.73C448.853 144.037 423.362 99.5889 423.73 51.0919C423.822 35.8158 425.386 20.4478 432.932 6.82812C432.932 6.82812 456.951 19.1594 485.57 19.1594C514.282 19.1594 538.209 6.82812 538.209 6.82812C545.755 20.5398 547.319 35.8158 547.411 51.0919C547.871 99.5889 522.288 144.037 485.57 163.73Z" fill="white"/>
<path d="M486.031 159.037C451.429 141.828 414.712 69.1288 435.049 17.043C435.049 17.043 457.135 25.6012 486.031 25.6012C514.926 25.6012 537.012 17.043 537.012 17.043C557.35 69.2209 520.632 141.828 486.031 159.037ZM542.626 2.04297C542.626 2.04297 516.951 15.2945 486.031 15.2945C455.11 15.2945 429.436 2.04297 429.436 2.04297C421.337 16.8589 419.681 33.2393 419.497 49.6196C419.129 101.89 446.644 149.65 486.031 170.816C525.417 149.65 552.933 101.89 552.472 49.7117C552.38 33.2393 550.632 16.8589 542.626 2.04297Z" fill="#0095DA"/>
<path d="M507.288 46.767C503.331 51.3682 497.442 55.6934 493.945 60.7547L493.393 60.5707L482.166 59.2823L481.982 54.7731C483.73 54.221 484.65 53.8529 486.031 52.1965C486.215 51.6443 485.295 51.0001 484.834 50.54C487.687 50.2639 489.62 52.1965 492.104 52.1965C492.472 52.0124 492.288 51.5523 492.288 51.2762C490.448 49.1597 487.503 49.8958 485.11 49.1596C486.399 48.6075 488.147 48.8836 489.436 47.7793C490.08 47.3191 489.804 46.767 489.16 46.0308C487.871 43.9142 485.479 41.0615 482.718 39.7732L482.35 36.2762C482.35 34.7118 483.27 34.6198 484.282 35.0799L492.38 38.3928C494.221 38.9449 492.933 44.7425 494.129 47.5032C498.73 46.3989 501.767 39.221 506.552 42.81C507.38 43.8222 508.209 45.4787 507.288 46.767ZM493.669 87.994L494.037 78.8836C494.037 78.8836 496.153 77.3192 496.153 75.7548C496.153 74.0983 495.141 71.8897 484.742 71.8897C465.141 71.8897 459.896 59.5584 459.896 53.5768C459.896 47.6873 464.221 39.7732 474.16 39.7732C484.098 39.7732 487.779 46.859 487.779 46.859C487.779 46.859 486.307 47.5032 484.742 47.5952C483.178 47.6873 480.601 47.3191 479.497 47.3191C478.393 47.3191 476.828 47.7793 476.828 47.7793C476.828 47.7793 478.301 49.3437 480.417 49.8959C482.534 50.54 484.006 52.1044 484.006 52.1044C484.006 52.1044 483.178 52.9327 480.509 52.9327C477.841 53.0247 473.791 50.9081 471.767 50.9081C469.834 50.9081 469.374 52.1964 469.374 53.7609C469.374 60.2946 483.362 61.4909 486.491 61.859C489.62 62.2271 506.46 62.7793 506.46 75.4787C506.368 88.086 493.669 87.994 493.669 87.994ZM482.534 74.6504C487.135 74.4664 491.828 75.3866 491.828 75.3866C491.828 75.3866 492.472 80.9081 492.012 89.5584C491.92 90.2946 491.368 90.2946 491.368 90.2946L483.822 89.8345C483.822 89.8345 480.417 80.1719 479.589 78.2394C479.129 77.1351 482.534 74.6504 482.534 74.6504ZM502.779 102.994C502.135 111.368 493.025 111.46 493.025 111.46L493.301 103.546C493.393 102.534 493.669 101.614 493.669 101.614C493.669 101.614 493.945 100.049 487.779 99.8652C479.589 99.4971 473.055 96.5523 473.055 89.7425C473.055 82.8406 478.301 80.9081 478.301 80.9081C478.301 80.9081 481.429 88.2701 481.614 88.8222C481.798 89.3744 481.245 89.8345 481.706 90.7547C482.166 91.583 486.215 91.859 489.896 92.2271C493.485 92.5952 503.423 94.7118 502.779 102.994ZM491.368 114.405C491.368 114.405 491.368 115.417 490.54 114.957C490.54 114.957 486.491 113.209 485.939 112.933C484.926 112.565 485.202 112.196 485.11 111.552L485.018 101.798C485.018 101.798 488.607 102.35 490.908 102.35C491.368 102.35 491.46 102.718 491.46 102.718C491.368 106.859 491.46 110.356 491.368 114.405ZM498.362 128.393C497.718 131.061 494.773 132.81 492.288 133.362L492.38 128.117C492.472 127.196 493.577 125.54 490.08 124.16C485.202 121.307 476.828 120.847 476 113.485C475.632 110.54 476.828 107.779 479.497 106.675C480.969 106.031 481.798 105.847 483.086 105.387L483.362 111.276C483.362 112.012 482.718 113.117 483.362 113.577C485.571 114.681 493.025 117.166 497.258 121.951C498.454 123.607 498.822 126 498.362 128.393ZM491 128.209C490.816 136.859 490.54 143.669 490.54 144.037C490.54 145.233 489.988 146.798 488.147 146.798C486.031 146.798 485.755 144.957 485.755 144.957C485.755 144.957 485.387 135.663 485.11 124.988C485.11 124.988 485.018 124.068 485.663 124.16C487.043 124.62 489.62 125.816 490.356 126.46C491.276 127.104 491 128.209 491 128.209ZM482.718 139.16C481.706 139.988 484.19 143.669 481.245 143.301C479.221 143.117 479.681 137.963 480.049 135.571C480.877 133.822 482.166 132.35 483.914 131.43L484.006 137.135C483.822 138.239 483.546 138.608 482.718 139.16ZM486.031 32.5032C461 32.5032 440.11 25.8774 440.11 25.8774C425.018 77.0431 457.135 133.086 486.031 151.767C514.926 132.994 547.135 76.9511 531.951 25.8774C531.951 25.8774 511.153 32.5032 486.031 32.5032Z" fill="#0095DA"/>
<path d="M477.104 43.7299C477.288 44.5581 475.816 45.1102 474.896 45.3863C473.331 45.6624 473.147 43.1777 471.675 43.1777C472.411 42.3495 475.172 42.8096 476.736 43.3618L477.104 43.7299Z" fill="#0095DA"/>
<path d="M90.0491 86.5216C90.0491 65.2639 73.2086 46.4909 51.1228 46.4909C30.9694 46.4909 12.1044 61.4909 12.1044 86.1535C12.1044 108.884 28.9448 126.276 51.1228 126.276C73.8528 126.368 90.0491 107.687 90.0491 86.5216ZM12.9326 136.031H0.417236V-0.257579H13.0246V54.497C23.7915 41.5216 37.135 35.0798 52.5031 35.0798C81.2148 35.0798 103.025 59.0062 103.025 86.9817C103.025 114.773 80.7547 138.607 52.135 138.607C36.2148 138.607 23.0553 131.614 13.0246 117.902V136.031H12.9326ZM122.994 63.8835V-0.349609H135.601V61.951V135.939H122.994V63.8835ZM233.331 37.6565H246.675V88.5461C246.675 121.767 231.675 138.331 203.515 138.331C175.356 138.331 160.172 121.675 160.172 88.5461V37.6565H173.515V85.6013C173.515 96.0001 173.515 104.466 176.276 110.448C180.877 120.479 191.092 126.184 203.515 126.184C212.626 126.184 220.54 122.871 225.785 117.442C233.515 109.068 233.331 99.6811 233.331 85.6013V37.6565ZM353.699 76.6749C348.546 56.3375 333.914 47.2271 316.89 47.2271C299.313 47.2271 286.153 56.7056 280.448 76.6749H353.699ZM279.068 87.8099C279.62 110.448 294.988 126.92 316.061 126.92C336.583 126.92 346.43 115.233 353.607 103.362L364.19 108.884C354.16 128.485 338.791 138.331 317.35 138.331C284.773 138.331 266 113.393 266 87.0737C266 60.2025 285.785 34.9878 316.522 34.9878C344.497 34.9878 367.043 55.2332 367.411 87.8099H279.068ZM96.859 204.405C93.086 210.203 86.4602 213.147 78.6381 213.147C65.9387 213.147 57.3804 203.945 57.3804 193.178C57.3804 181.767 66.3068 172.472 79.0982 172.472C86.5522 172.472 93.362 175.509 96.951 181.491L92.9019 183.976C89.497 179.466 84.7117 177.258 78.9142 177.258C69.0675 177.258 62.5338 184.528 62.5338 192.81C62.5338 201.276 68.9755 208.638 78.9142 208.638C84.5277 208.638 89.2209 206.338 92.8099 201.828L96.859 204.405ZM141.123 173.485H146V212.227H141.123V205.601C136.89 210.755 131.552 213.147 125.479 213.147C114.16 213.147 105.601 203.761 105.601 192.718C105.601 181.675 114.344 172.472 125.571 172.472C131.828 172.472 137.166 175.141 141.031 180.571V173.485H141.123ZM110.755 192.902C110.755 201.276 117.288 208.638 126.031 208.638C133.945 208.638 141.491 202.657 141.491 192.994C141.491 183.976 134.773 177.258 126.123 177.258C117.196 177.258 110.755 184.528 110.755 192.902ZM161.184 158.485H166.153V184.804V212.227H161.184V184.804V158.485ZM187.871 161.522C187.871 163.822 185.939 165.663 183.73 165.663C181.43 165.663 179.681 163.73 179.681 161.522C179.681 159.221 181.614 157.472 183.73 157.472C186.031 157.472 187.871 159.313 187.871 161.522ZM181.337 173.485H186.307V212.227H181.337V173.485ZM202.687 167.411C202.687 161.153 204.252 157.38 210.601 157.38C212.718 157.38 214.65 157.933 216.307 158.485V163.362C215.11 162.81 213.638 162.166 211.614 162.166C207.564 162.166 207.656 164.65 207.656 168.147V173.393H215.847V177.81H207.656V212.227H202.687V177.81H197.534V173.393H202.687V167.411ZM262.871 192.902C262.871 203.945 254.313 213.147 242.626 213.147C230.939 213.147 222.38 203.853 222.38 192.902C222.38 181.767 231.031 172.38 242.626 172.38C254.221 172.472 262.871 181.859 262.871 192.902ZM227.534 192.994C227.534 201.46 233.883 208.362 242.626 208.362C251.276 208.362 257.718 201.46 257.718 192.994C257.718 184.344 250.816 177.258 242.626 177.258C234.252 177.258 227.534 184.436 227.534 192.994ZM279.896 179.098C282.841 174.865 285.969 172.472 289.926 172.472C292.227 172.472 293.331 173.209 294.344 173.761L291.675 177.994C291.123 177.718 290.111 177.258 289.006 177.258C285.325 177.258 282.104 180.387 280.632 185.724C279.988 188.209 279.804 192.258 279.804 197.503V212.227H274.558V173.485H279.804V179.098H279.896ZM309.252 180.387C313.301 175.141 318.086 172.472 323.791 172.472C332.258 172.472 338.147 178.27 338.147 190.509V212.227H333.178V191.153C333.178 182.043 330.325 176.982 322.779 176.982C318.638 176.982 315.233 178.822 312.564 182.227C309.62 186 309.252 189.865 309.252 195.939V212.227H304.282V173.485H309.252V180.387ZM359.221 161.522C359.221 163.822 357.288 165.663 355.08 165.663C352.871 165.663 351.031 163.73 351.031 161.522C351.031 159.221 352.963 157.472 355.08 157.472C357.288 157.472 359.221 159.313 359.221 161.522ZM352.595 173.485H357.564V212.227H352.595V173.485ZM405.785 173.485H410.663V212.227H405.785V205.601C401.552 210.755 396.215 213.147 390.141 213.147C378.822 213.147 370.264 203.761 370.264 192.718C370.264 181.675 379.006 172.472 390.233 172.472C396.491 172.472 401.828 175.141 405.693 180.571V173.485H405.785ZM375.417 192.902C375.417 201.276 381.951 208.638 390.693 208.638C398.607 208.638 406.153 202.657 406.153 192.994C406.153 183.976 399.436 177.258 390.785 177.258C381.859 177.258 375.417 184.528 375.417 192.902Z" fill="black"/>
</g>
<defs>
<clipPath id="clip0_317_872">
<rect width="552" height="213" fill="white"/>
</clipPath>
</defs>
</svg>
