<svg width="600" height="87" viewBox="0 0 600 87" fill="none" xmlns="http://www.w3.org/2000/svg">
<g clip-path="url(#clip0_317_907)">
<path d="M0 66.1163H8.6145V7.96844L25.8435 66.1163H32.5197L49.7487 8.18381V66.1163H58.794V0.861481H43.7186L29.2893 49.7488L15.0754 0.861481H0V66.1163ZM89.8062 16.5829C76.8844 16.5829 68.2699 25.6282 68.2699 41.9957C68.2699 58.3633 76.6691 67.1931 89.8062 67.1931C102.728 67.1931 111.342 58.1479 111.342 41.9957C111.342 25.6282 102.943 16.5829 89.8062 16.5829ZM77.3151 41.9957C77.3151 29.2893 82.4838 23.4745 89.8062 23.4745C97.1285 23.4745 102.297 29.2893 102.297 41.9957C102.297 54.7021 97.1285 60.5169 89.8062 60.5169C82.6992 60.3015 77.3151 54.7021 77.3151 41.9957ZM120.603 66.1163H129.648V33.3812C134.171 26.2743 138.478 24.336 142.785 24.336C143.862 24.336 144.939 24.336 145.585 24.7667V16.3676C144.939 16.1522 143.862 15.9369 142.785 15.9369C138.263 15.9369 133.094 19.1673 129.648 25.1974V17.4444H120.603V66.1163ZM167.121 66.9778C172.505 66.9778 176.167 64.8242 179.828 61.8091V65.2549C179.828 73.654 177.028 78.6073 167.552 78.6073C162.168 78.6073 157.645 76.6691 153.553 74.0847L149.892 80.9763C153.769 83.5607 161.091 85.9297 167.983 85.9297C180.905 85.9297 189.088 78.6074 189.088 66.5471V17.4444H180.258V21.5363C176.597 18.5212 172.721 16.5829 167.337 16.5829C156.784 16.5829 147.308 23.6899 147.308 41.7804C147.308 60.0862 156.784 66.9778 167.121 66.9778ZM156.138 41.9957C156.138 28.6432 161.737 23.4745 168.198 23.4745C172.721 23.4745 175.736 25.1974 179.612 28.6432V55.3482C175.736 58.794 172.505 60.3015 168.198 60.3015C161.737 60.3015 156.138 55.3482 156.138 41.9957ZM212.563 67.1931C217.516 67.1931 222.469 64.8242 226.561 61.3783C227.854 64.8242 230.869 66.5471 235.822 66.5471C237.114 66.5471 238.191 66.3317 239.268 65.901V59.4401C238.622 59.4401 238.191 59.4401 237.545 59.4401C235.391 59.4401 234.53 58.5786 234.53 56.425V31.8737C234.53 22.6131 228.5 16.3676 217.732 16.3676C209.548 16.3676 202.01 20.2441 197.057 26.4896L202.656 31.443C206.963 26.4896 211.917 23.6899 216.655 23.6899C223.762 23.6899 225.7 27.7818 225.7 32.7351V34.8888L216.009 37.0424C201.795 40.2728 197.057 46.303 197.057 53.8407C197.487 60.7323 202.225 67.1931 212.563 67.1931ZM206.317 53.4099C206.317 48.8873 208.902 45.6569 217.301 43.5033L226.131 41.3496V55.3482C222.469 58.3633 218.378 60.5169 214.286 60.5169C208.902 60.7323 206.317 57.2865 206.317 53.4099ZM247.667 66.1163H256.712V29.5047C260.589 25.4128 264.681 23.2592 268.988 23.2592C273.295 23.2592 276.525 26.0589 276.525 31.2276V65.901H285.571V31.443C285.571 21.3209 279.971 15.9369 271.357 15.9369C266.188 15.9369 261.235 17.6598 256.712 21.967V17.4444H247.667V66.1163ZM332.95 66.9778C345.011 66.9778 355.348 60.3015 355.348 48.672C355.348 36.827 347.38 33.1659 333.812 28.6432C325.628 25.8435 319.167 23.6899 319.167 17.229C319.167 10.3374 324.551 7.53772 331.012 7.53772C337.904 7.53772 343.503 11.4142 346.518 17.8751L353.841 13.9986C349.533 4.30728 340.704 -0.215332 331.012 -0.215332C319.598 -0.215332 309.907 6.24554 309.907 17.8751C309.907 28.6432 317.66 32.9505 330.151 36.827C339.196 39.6267 345.872 41.9957 345.872 49.1027C345.872 56.2096 339.842 59.0094 332.95 59.0094C324.982 59.0094 318.521 55.1328 315.291 48.4566L307.968 52.7639C312.491 62.0244 321.967 66.9778 332.95 66.9778ZM380.761 59.4401C377.1 59.4401 375.377 57.9325 375.377 54.4867V24.336H384.422V17.4444H375.377V4.09192H366.332V17.4444H358.363V24.336H366.332V55.9943C366.332 62.8859 370.208 66.5471 378.823 66.5471C380.546 66.5471 382.268 66.3317 384.422 65.901V59.4401C382.915 59.4401 382.268 59.4401 380.761 59.4401ZM405.097 67.1931C410.05 67.1931 415.004 64.8242 419.095 61.3783C420.388 64.8242 423.403 66.5471 428.356 66.5471C429.648 66.5471 430.725 66.3317 431.802 65.901V59.4401C431.156 59.4401 430.725 59.4401 430.079 59.4401C427.925 59.4401 427.064 58.5786 427.064 56.425V31.8737C427.064 22.6131 421.034 16.3676 410.266 16.3676C402.082 16.3676 394.544 20.2441 389.591 26.4896L395.19 31.443C399.497 26.4896 404.451 23.6899 409.189 23.6899C416.296 23.6899 418.234 27.7818 418.234 32.7351V34.8888L408.543 37.0424C394.329 40.2728 389.591 46.303 389.591 53.8407C390.022 60.7323 394.76 67.1931 405.097 67.1931ZM398.851 53.4099C398.851 48.8873 401.436 45.6569 409.835 43.5033L418.665 41.3496V55.3482C415.004 58.3633 410.912 60.5169 406.82 60.5169C401.436 60.7323 398.851 57.2865 398.851 53.4099ZM440.201 66.1163H449.246V29.5047C453.123 25.4128 457.215 23.2592 461.522 23.2592C465.829 23.2592 469.06 26.0589 469.06 31.2276V65.901H478.105V31.443C478.105 21.3209 472.505 15.9369 463.891 15.9369C458.722 15.9369 453.769 17.6598 449.246 21.967V17.4444H440.201V66.1163ZM503.087 59.2247C499.856 59.2247 498.564 57.9325 498.564 54.7021V0.861481H489.519V55.7789C489.519 62.4552 493.18 66.3317 501.149 66.3317C502.871 66.3317 504.594 66.1163 506.317 65.6856V58.794C505.241 59.2247 504.164 59.2247 503.087 59.2247ZM551.328 56.2097L544.652 52.3331C541.637 57.9325 537.545 60.5169 532.161 60.5169C525.054 60.5169 519.885 55.5636 519.239 44.1493H551.759V40.9189C551.759 24.9821 543.575 16.3676 531.515 16.3676C518.808 16.3676 510.194 25.1974 510.194 41.7804C510.194 58.5786 519.024 66.9778 531.945 66.9778C541.421 67.1931 547.021 63.3166 551.328 56.2097ZM531.73 23.2592C537.976 23.2592 542.498 27.5664 543.36 37.4731H519.67C520.531 27.5664 525.269 23.2592 531.73 23.2592ZM564.034 78.8227C562.312 78.8227 560.589 78.392 558.435 77.5305L556.066 84.4221C558.866 85.7143 561.665 86.3604 564.465 86.3604C572.218 86.3604 576.31 82.4839 579.541 73.8694L599.785 17.6598H590.739L577.818 55.9943L564.25 17.4444H554.774L573.295 67.4085L572.003 70.8543C569.634 76.4537 568.126 78.8227 564.034 78.8227Z" fill="#231F20"/>
</g>
<defs>
<clipPath id="clip0_317_907">
<rect width="600" height="86.145" fill="white"/>
</clipPath>
</defs>
</svg>
