<svg width="536" height="122" viewBox="0 0 536 122" fill="none" xmlns="http://www.w3.org/2000/svg">
<g clip-path="url(#clip0_317_659)">
<path d="M254.264 0.552246H266.411C272.577 0.552246 274.141 4.41728 274.141 6.99396C274.141 10.5829 272.117 11.5952 271.104 12.1473C274.141 13.3436 274.969 15.7363 274.969 18.221C274.969 20.2455 274.141 22.086 272.853 23.3743C271.472 24.7547 270.092 25.6749 264.939 25.6749H254.356V0.552246H254.264ZM259.233 10.3068H265.399C267.423 10.3068 269.08 9.47862 269.08 7.5461C269.08 5.52156 267.607 4.8774 265.215 4.8774H259.233V10.3068ZM259.233 21.2578H265.675C268.252 21.2578 269.632 20.1535 269.632 17.5768C269.632 15.3682 267.791 14.54 265.859 14.54H259.233V21.2578Z" fill="#3957B5"/>
<path d="M282.331 0.552246H277.454V25.4909H282.331V0.552246Z" fill="#3957B5"/>
<path d="M302.025 25.5829H297.331V23.0062H297.239C296.135 25.0307 294.202 26.135 291.626 26.135C287.945 26.135 285.368 24.0185 285.368 19.3252V7.17798H290.245V18.681C290.245 21.5338 291.902 22.086 293.374 22.086C294.939 22.086 297.147 21.1657 297.147 17.8528V7.17798H302.025V25.5829Z" fill="#3957B5"/>
<path d="M320.89 20.1533C319.601 24.5705 315.92 26.0429 312.791 26.0429C307.546 26.0429 303.589 23.5582 303.589 15.9202C303.589 13.7116 304.325 6.53369 312.423 6.53369C316.104 6.53369 321.074 8.28215 321.074 16.7484V17.5766H308.374C308.466 18.957 308.834 22.0858 312.699 22.0858C314.08 22.0858 315.46 21.3496 315.828 20.0613H320.89V20.1533ZM316.104 14.4478C315.828 11.411 313.896 10.5828 312.331 10.5828C310.031 10.5828 308.834 12.0552 308.558 14.4478H316.104Z" fill="#3957B5"/>
<path d="M347.025 8.74233C346.564 7.26994 345.828 4.41718 341.503 4.41718C339.018 4.41718 335.337 6.07362 335.337 13.1595C335.337 17.6687 337.086 21.7178 341.503 21.7178C344.356 21.7178 346.38 20.0613 347.025 17.0245H352.27C351.258 22.454 347.669 26.227 341.411 26.227C334.785 26.227 330 21.7178 330 13.1595C330 4.41718 335.061 0 341.503 0C348.957 0 351.994 5.15338 352.27 8.83436H347.025V8.74233Z" fill="#3957B5"/>
<path d="M354.202 7.08586H358.896V10.3067H358.988C360 8.46622 361.104 6.62573 364.049 6.62573C364.325 6.62573 364.693 6.62574 364.969 6.71776V11.6871C364.509 11.5951 364.049 11.5951 363.589 11.5951C359.816 11.5951 359.08 13.9877 359.08 16.0122V25.6748H354.202V7.08586Z" fill="#3957B5"/>
<path d="M374.54 26.0429C369.571 26.0429 365.061 23.0061 365.061 16.2883C365.061 9.57049 369.571 6.53369 374.54 6.53369C379.509 6.53369 384.018 9.57049 384.018 16.2883C383.926 23.0061 379.509 26.0429 374.54 26.0429ZM374.54 10.6748C370.767 10.6748 370.123 13.9877 370.123 16.2883C370.123 18.6809 370.859 21.9018 374.54 21.9018C378.313 21.9018 378.957 18.5889 378.957 16.2883C378.957 13.8956 378.221 10.6748 374.54 10.6748Z" fill="#3957B5"/>
<path d="M396.166 12.6993C395.982 11.503 395.521 10.3067 392.853 10.3067C390.184 10.3067 389.908 11.319 389.908 12.1472C389.908 15.092 401.503 12.9754 401.503 19.7852C401.503 25.2147 396.258 26.1349 393.405 26.1349C389.172 26.1349 384.663 24.6625 384.479 19.6932H389.448C389.448 21.2576 390.46 22.3619 393.497 22.3619C395.982 22.3619 396.626 21.1656 396.626 20.4294C396.626 17.3006 385.123 19.6932 385.123 12.6993C385.123 10.0306 386.871 6.53369 392.577 6.53369C396.166 6.53369 400.491 7.45393 400.859 12.6993H396.166Z" fill="#3957B5"/>
<path d="M413.926 12.6993C413.742 11.503 413.282 10.3067 410.613 10.3067C407.945 10.3067 407.577 11.319 407.577 12.1472C407.577 15.092 419.172 12.9754 419.172 19.7852C419.172 25.2147 413.926 26.1349 411.074 26.1349C406.84 26.1349 402.331 24.6625 402.147 19.6932H407.117C407.117 21.2576 408.129 22.3619 411.166 22.3619C413.65 22.3619 414.294 21.1656 414.294 20.4294C414.294 17.3006 402.791 19.6932 402.791 12.6993C402.791 10.0306 404.54 6.53369 410.245 6.53369C413.834 6.53369 418.16 7.45393 418.528 12.6993H413.926Z" fill="#3957B5"/>
<path d="M254.264 30.7363H266.411C272.577 30.7363 274.141 34.6014 274.141 37.178C274.141 40.767 272.117 41.7793 271.104 42.3314C274.141 43.4357 274.969 45.9204 274.969 48.405C274.969 50.4296 274.141 52.2701 272.853 53.5584C271.472 54.9388 270.092 55.859 264.939 55.859H254.356V30.7363H254.264ZM259.233 40.4909H265.399C267.423 40.4909 269.08 39.6627 269.08 37.7302C269.08 35.7057 267.607 35.0615 265.215 35.0615H259.233V40.4909ZM259.233 51.4418H265.675C268.252 51.4418 269.632 50.3376 269.632 47.7609C269.632 45.5523 267.791 44.724 265.859 44.724H259.233V51.4418Z" fill="#3957B5"/>
<path d="M282.331 30.7363H277.454V55.675H282.331V30.7363Z" fill="#3957B5"/>
<path d="M302.025 55.6749H297.331V53.0982H297.239C296.135 55.1228 294.202 56.2271 291.626 56.2271C287.945 56.2271 285.368 54.1105 285.368 49.4172V37.27H290.245V48.7731C290.245 51.6258 291.902 52.178 293.374 52.178C294.939 52.178 297.147 51.2577 297.147 47.9448V37.27H302.025V55.6749Z" fill="#3957B5"/>
<path d="M320.89 50.3374C319.601 54.7546 315.92 56.227 312.791 56.227C307.546 56.227 303.589 53.7423 303.589 46.1043C303.589 43.8957 304.325 36.7178 312.423 36.7178C316.104 36.7178 321.074 38.4662 321.074 46.9325V47.7607H308.374C308.466 49.1411 308.834 52.2699 312.699 52.2699C314.08 52.2699 315.46 51.5337 315.828 50.2454H320.89V50.3374ZM316.104 44.6319C315.828 41.5951 313.896 40.7668 312.331 40.7668C310.031 40.7668 308.834 42.2393 308.558 44.6319H316.104Z" fill="#3957B5"/>
<path d="M334.877 48.0368C334.877 49.4172 335.613 52.0859 340.123 52.0859C342.607 52.0859 345.368 51.5337 345.368 48.865C345.368 46.9325 343.528 46.3804 340.859 45.7362L338.19 45.092C334.141 44.1718 330.276 43.2515 330.276 37.7301C330.276 34.9693 331.748 30 339.847 30C347.485 30 349.509 34.9693 349.601 38.0982H344.632C344.54 36.9939 344.08 34.3252 339.479 34.3252C337.454 34.3252 335.153 35.0613 335.153 37.3619C335.153 39.2945 336.718 39.7546 337.822 39.9387L343.896 41.4111C347.301 42.2393 350.429 43.6196 350.429 48.1288C350.429 55.6748 342.791 56.319 340.583 56.319C331.472 56.319 329.908 51.0736 329.908 47.9448H334.877V48.0368Z" fill="#3957B5"/>
<path d="M369.018 55.675H364.141V44.448C364.141 43.0676 364.049 40.767 361.012 40.767C358.896 40.767 357.147 42.2394 357.147 45.0922V55.675H352.27V30.7363H357.147V39.5707H357.239C357.883 38.0063 359.908 36.7179 362.577 36.7179C366.166 36.7179 369.018 38.8345 369.018 42.8836V55.675Z" fill="#3957B5"/>
<path d="M376.932 35.0615H372.055V30.5522H376.932V35.0615ZM376.932 55.675H372.055V37.178H376.932V55.675Z" fill="#3957B5"/>
<path d="M395.89 50.3374C394.601 54.7546 390.92 56.227 387.791 56.227C382.546 56.227 378.589 53.7423 378.589 46.1043C378.589 43.8957 379.325 36.7178 387.423 36.7178C391.104 36.7178 396.166 38.4662 396.166 46.9325V47.7607H383.466C383.558 49.1411 383.926 52.2699 387.791 52.2699C389.172 52.2699 390.552 51.5337 390.92 50.2454H395.89V50.3374ZM391.012 44.6319C390.736 41.5951 388.804 40.7668 387.239 40.7668C384.939 40.7668 383.742 42.2393 383.466 44.6319H391.012Z" fill="#3957B5"/>
<path d="M402.699 30.7363H397.822V55.675H402.699V30.7363Z" fill="#3957B5"/>
<path d="M422.577 55.7668H417.791V53.4662H417.699C416.503 55.5827 414.386 56.3189 412.362 56.3189C406.84 56.3189 404.54 51.4416 404.54 46.3803C404.54 39.9386 408.129 36.8097 412.178 36.8097C415.307 36.8097 416.779 38.5582 417.515 39.6625H417.607V30.8281H422.485V55.7668H422.577ZM413.65 52.1778C416.779 52.1778 417.975 49.6011 417.975 46.8404C417.975 43.8956 417.147 40.8588 413.834 40.8588C410.706 40.8588 409.693 43.6195 409.693 46.5643C409.601 48.7729 410.521 52.1778 413.65 52.1778Z" fill="#3957B5"/>
<path d="M254.264 60.9202H266.411C272.577 60.9202 274.141 64.7852 274.141 67.3619C274.141 70.9508 272.117 71.9631 271.104 72.5153C274.141 73.7116 274.969 76.1042 274.969 78.5889C274.969 80.6134 274.141 82.4539 272.853 83.7423C271.472 85.1226 270.092 86.0429 264.939 86.0429H254.356V60.9202H254.264ZM259.233 70.6748H265.399C267.423 70.6748 269.08 69.8466 269.08 67.914C269.08 65.8895 267.607 65.2453 265.215 65.2453H259.233V70.6748ZM259.233 81.5337H265.675C268.252 81.5337 269.632 80.4294 269.632 77.8527C269.632 75.6441 267.791 74.8159 265.859 74.8159H259.233V81.5337Z" fill="#3957B5"/>
<path d="M282.331 60.9202H277.454V85.8588H282.331V60.9202Z" fill="#3957B5"/>
<path d="M302.025 85.859H297.331V83.2823H297.239C296.135 85.3069 294.202 86.4112 291.626 86.4112C287.945 86.4112 285.368 84.2946 285.368 79.6014V67.4541H290.245V78.9572C290.245 81.8099 291.902 82.3621 293.374 82.3621C294.939 82.3621 297.147 81.4418 297.147 78.129V67.4541H302.025V85.859Z" fill="#3957B5"/>
<path d="M320.89 80.4295C319.601 84.8466 315.92 86.319 312.791 86.319C307.546 86.319 303.589 83.8344 303.589 76.1963C303.589 73.9877 304.325 66.8098 312.423 66.8098C316.104 66.8098 321.074 68.5583 321.074 77.0245V77.8528H308.374C308.466 79.2331 308.834 82.362 312.699 82.362C314.08 82.362 315.46 81.6258 315.828 80.3374H320.89V80.4295ZM316.104 74.816C315.828 71.7792 313.896 70.9509 312.331 70.9509C310.031 70.9509 308.834 72.4233 308.558 74.816H316.104Z" fill="#3957B5"/>
<path d="M347.025 69.1105C346.564 67.6381 345.828 64.7853 341.503 64.7853C339.018 64.7853 335.337 66.4418 335.337 73.5277C335.337 78.0369 337.086 82.0859 341.503 82.0859C344.356 82.0859 346.38 80.4295 347.025 77.3927H352.27C351.258 82.8221 347.669 86.5951 341.411 86.5951C334.785 86.5951 330 82.0859 330 73.4356C330 64.6933 335.061 60.2761 341.503 60.2761C348.957 60.2761 351.994 65.4295 352.27 69.1105H347.025Z" fill="#3957B5"/>
<path d="M369.202 82.27C369.202 84.4786 369.663 84.9387 370.307 85.1227V85.8589H365.061C364.785 85.0307 364.693 84.7546 364.601 83.6503C363.497 84.7546 361.932 86.319 358.62 86.319C355.859 86.319 353.006 84.7546 353.006 80.8896C353.006 77.3006 355.307 75.4602 358.436 75L362.853 74.3558C363.589 74.2638 364.601 73.8957 364.601 72.8835C364.601 70.8589 362.669 70.7669 361.38 70.7669C358.988 70.7669 358.528 72.2393 358.344 73.3436H353.65C354.202 67.6381 358.159 66.9019 361.932 66.9019C364.509 66.9019 369.294 67.7301 369.294 72.2393V82.27H369.202ZM364.417 76.8405C363.957 77.2086 363.129 77.5767 361.104 77.8528C359.264 78.1288 357.791 78.589 357.791 80.6135C357.791 82.362 359.08 82.8221 360.092 82.8221C362.209 82.8221 364.417 81.4417 364.417 79.1411V76.8405Z" fill="#3957B5"/>
<path d="M371.871 67.362H376.564V70.5828H376.656C377.669 68.7423 378.773 66.9019 381.718 66.9019C381.994 66.9019 382.362 66.9019 382.638 66.9939V71.9632C382.178 71.8712 381.718 71.8712 381.258 71.8712C377.485 71.8712 376.748 74.2638 376.748 76.2884V85.8589H371.871V67.362Z" fill="#3957B5"/>
<path d="M399.755 80.4295C398.466 84.8466 394.785 86.319 391.656 86.319C386.411 86.319 382.454 83.8344 382.454 76.1963C382.454 73.9877 383.19 66.8098 391.288 66.8098C394.969 66.8098 400.031 68.5583 400.031 77.0245V77.8528H387.239C387.423 79.2331 387.699 82.362 391.564 82.362C392.945 82.362 394.325 81.6258 394.693 80.3374H399.755V80.4295ZM394.877 74.816C394.601 71.7792 392.669 70.9509 391.104 70.9509C388.804 70.9509 387.607 72.4233 387.331 74.816H394.877Z" fill="#3957B5"/>
<path d="M425.153 60.9202H430.031V85.8588H424.877L414.663 68.0981H414.571V85.8588H409.693V60.9202H415.215L425.153 78.3128V60.9202Z" fill="#3957B5"/>
<path d="M448.896 80.4295C447.607 84.8466 443.926 86.319 440.798 86.319C435.552 86.319 431.595 83.8344 431.595 76.1963C431.595 73.9877 432.331 66.8098 440.429 66.8098C444.11 66.8098 449.172 68.5583 449.172 77.0245V77.8528H436.472C436.564 79.2331 436.933 82.362 440.798 82.362C442.178 82.362 443.558 81.6258 443.926 80.3374H448.896V80.4295ZM444.11 74.816C443.834 71.7792 441.902 70.9509 440.337 70.9509C438.037 70.9509 436.84 72.4233 436.564 74.816H444.11Z" fill="#3957B5"/>
<path d="M456.258 67.3619H459.294V70.8588H456.258V80.8895C456.258 81.9938 456.258 82.3619 458.282 82.3619C458.558 82.3619 458.926 82.3619 459.294 82.2699V85.9509C458.558 85.9509 457.73 86.0429 456.994 86.0429H456.35C452.117 86.0429 451.38 84.4785 451.38 82.0858V70.8588H448.896V67.3619H451.38V62.3926H456.258V67.3619Z" fill="#3957B5"/>
<path d="M481.564 85.859H476.595L473.65 72.4234L470.706 85.859H465.736L460.491 67.3621H465.644L468.589 80.7056H468.681L471.258 67.3621H476.135L478.896 80.7056H478.988L481.933 67.3621H486.902L481.564 85.859Z" fill="#3957B5"/>
<path d="M495.644 86.4111C490.675 86.4111 486.166 83.3743 486.166 76.6565C486.166 69.9387 490.675 66.9019 495.644 66.9019C500.613 66.9019 505.123 69.9387 505.123 76.6565C505.123 83.2822 500.613 86.4111 495.644 86.4111ZM495.644 71.043C491.871 71.043 491.227 74.3558 491.227 76.6565C491.227 78.9571 491.963 82.27 495.644 82.27C499.325 82.27 500.061 78.9571 500.061 76.6565C500.061 74.3558 499.417 71.043 495.644 71.043Z" fill="#3957B5"/>
<path d="M506.871 67.362H511.564V70.5828H511.656C512.669 68.7423 513.773 66.9019 516.718 66.9019C516.994 66.9019 517.362 66.9019 517.638 66.9939V71.9632C517.178 71.8712 516.718 71.8712 516.258 71.8712C512.485 71.8712 511.748 74.2638 511.748 76.2884V85.8589H506.871V67.362Z" fill="#3957B5"/>
<path d="M523.804 85.8588H518.926V60.9202H523.804V74.4478L529.969 67.3619H535.951L529.417 74.5398L536.135 85.8588H530.245L525.828 77.9447L523.804 80.0613V85.8588Z" fill="#3957B5"/>
<path d="M260.614 102.423C264.847 102.423 266.779 106.012 266.779 109.417C266.779 112.822 264.847 116.411 260.614 116.411C256.38 116.411 254.448 112.822 254.448 109.417C254.54 106.012 256.38 102.423 260.614 102.423ZM260.614 114.479C263.834 114.479 264.479 111.166 264.479 109.417C264.479 107.669 263.834 104.356 260.614 104.356C257.393 104.356 256.748 107.669 256.748 109.417C256.841 111.166 257.485 114.479 260.614 114.479Z" fill="#3957B5"/>
<path d="M272.117 104.632V116.043H269.908V104.632H268.067V102.791H269.908V100.583C269.908 98.5582 271.196 97.6379 273.313 97.6379C273.681 97.6379 273.957 97.6379 274.325 97.73V99.7545C274.049 99.7545 273.681 99.6625 273.405 99.6625C272.485 99.6625 272.117 100.123 272.117 101.227V102.883H274.325V104.724H272.117V104.632Z" fill="#3957B5"/>
<path d="M298.62 116.043V105.276C298.62 104.724 298.712 102.423 298.712 100.767H298.62L293.466 116.043H291.074L285.92 100.859H285.828C285.828 102.515 285.92 104.816 285.92 105.368V116.135H283.528V98.0061H287.025L292.178 113.374H292.27L297.423 98.0061H300.92V116.135H298.62V116.043Z" fill="#3957B5"/>
<path d="M304.509 97.9141H306.718V100.399H304.509V97.9141ZM306.718 116.043H304.509V102.791H306.718V116.043Z" fill="#3957B5"/>
<path d="M318.313 107.301C318.037 105.552 317.025 104.448 315.184 104.448C312.423 104.448 311.503 107.117 311.503 109.417C311.503 111.718 312.055 114.479 315.092 114.479C316.564 114.479 317.853 113.374 318.221 111.35H320.337C320.153 113.466 318.865 116.411 314.908 116.411C311.227 116.411 309.018 113.558 309.018 109.785C309.018 105.644 310.951 102.423 315.368 102.423C318.865 102.423 320.153 105 320.337 107.301H318.313Z" fill="#3957B5"/>
<path d="M333.497 116.043H331.288V107.393C331.288 105.552 330.736 104.448 328.62 104.448C326.779 104.448 324.939 105.552 324.939 108.865V116.043H322.73V97.9141H324.939V104.632H325.031C325.675 103.804 326.779 102.515 328.896 102.515C330.92 102.515 333.497 103.344 333.497 107.117V116.043Z" fill="#3957B5"/>
<path d="M336.81 97.9141H339.018V100.399H336.81V97.9141ZM339.11 116.043H336.902V102.791H339.11V116.043Z" fill="#3957B5"/>
<path d="M353.374 114.939C353.374 116.871 353.374 121.564 347.209 121.564C345.644 121.564 342.607 121.104 342.147 117.607H344.356C344.724 119.724 346.84 119.724 347.301 119.724C351.166 119.724 351.074 116.595 351.074 115.031V114.479C350.429 115.583 349.233 116.319 347.485 116.319C342.975 116.319 341.687 112.086 341.687 108.957C341.687 105.276 343.712 102.331 347.209 102.331C349.601 102.331 350.613 103.896 351.166 104.632V102.699H353.282V114.939H353.374ZM347.669 114.479C349.049 114.479 351.258 113.558 351.258 110.061C351.258 107.945 350.89 104.448 347.669 104.448C344.264 104.448 344.08 107.669 344.08 109.417C344.08 112.362 345.184 114.479 347.669 114.479Z" fill="#3957B5"/>
<path d="M356.411 106.841C356.503 103.712 358.62 102.423 361.84 102.423C362.945 102.423 366.718 102.699 366.718 106.104V113.742C366.718 114.294 366.994 114.479 367.454 114.479C367.638 114.479 367.914 114.479 368.19 114.387V116.043C367.822 116.135 367.454 116.319 366.994 116.319C365.061 116.319 364.693 115.307 364.601 114.295C363.773 115.215 362.393 116.411 359.816 116.411C357.423 116.411 355.675 114.847 355.675 112.546C355.675 111.442 356.043 108.865 359.724 108.405L363.405 107.945C363.957 107.853 364.601 107.669 364.601 106.38C364.601 105 363.589 104.264 361.472 104.264C358.896 104.264 358.62 105.828 358.436 106.841H356.411ZM364.509 109.325C364.141 109.601 363.589 109.785 360.828 110.153C359.724 110.337 357.975 110.614 357.975 112.27C357.975 113.742 358.712 114.571 360.368 114.571C362.485 114.571 364.509 113.19 364.509 111.442V109.325Z" fill="#3957B5"/>
<path d="M381.35 116.043H379.141V107.945C379.141 105.644 378.497 104.448 376.288 104.448C375 104.448 372.791 105.276 372.791 108.865V116.043H370.583V102.791H372.699V104.632H372.791C373.252 103.896 374.54 102.331 376.748 102.331C378.773 102.331 381.35 103.16 381.35 106.933V116.043Z" fill="#3957B5"/>
<path d="M194.816 109.233C194.816 105.092 198.129 102.055 202.086 102.055C205.951 102.055 209.356 105.092 209.356 109.233C209.356 113.374 206.043 116.411 202.086 116.411C198.129 116.411 194.816 113.374 194.816 109.233ZM202.086 115.215C205.307 115.215 207.883 112.638 207.883 109.233C207.883 105.828 205.307 103.251 202.086 103.251C198.773 103.251 196.288 105.828 196.288 109.233C196.196 112.638 198.773 115.215 202.086 115.215ZM200.521 113.374H199.233V105.092H202.362C204.294 105.092 205.307 105.828 205.307 107.485C205.307 108.957 204.387 109.601 203.19 109.785L205.583 113.466H204.202L201.994 109.877H200.521V113.374ZM202.086 108.681C203.19 108.681 204.11 108.589 204.11 107.301C204.11 106.288 203.19 106.104 202.27 106.104H200.521V108.681H202.086Z" fill="#3957B5"/>
<path d="M89.1718 109.233C89.1718 105.092 92.4846 102.055 96.4417 102.055C100.307 102.055 103.712 105.092 103.712 109.233C103.712 113.374 100.399 116.411 96.4417 116.411C92.5767 116.411 89.1718 113.374 89.1718 109.233ZM96.4417 115.215C99.6626 115.215 102.239 112.638 102.239 109.233C102.239 105.828 99.6626 103.251 96.4417 103.251C93.1288 103.251 90.6441 105.828 90.6441 109.233C90.6441 112.638 93.2208 115.215 96.4417 115.215ZM94.9693 113.374H93.681V105.092H96.8098C98.7423 105.092 99.7546 105.828 99.7546 107.485C99.7546 108.957 98.8343 109.601 97.638 109.785L100.031 113.466H98.6503L96.4417 109.785H94.9693V113.374ZM96.4417 108.681C97.546 108.681 98.4662 108.589 98.4662 107.301C98.4662 106.288 97.546 106.104 96.6257 106.104H94.8773V108.681H96.4417Z" fill="#3957B5"/>
<path d="M31.6564 0.920141L82.9141 0.828125V32.5766H114.479V83.7422H82.9141V115.031H31.6564V83.7422H0V32.5766H31.6564V0.920141Z" fill="#3957B5"/>
<path fill-rule="evenodd" clip-rule="evenodd" d="M136.656 1.65649C117.791 46.6565 142.086 95.6136 176.411 115.307C210.552 95.6136 235.031 46.8405 215.982 1.65649C190.675 12.9755 162.239 12.6994 136.656 1.65649Z" fill="#3957B5"/>
<path d="M25.3068 57.9755C25.3068 40.3068 39.6626 25.9509 57.3313 25.9509C75 25.9509 89.3558 40.3068 89.3558 57.9755C89.3558 75.6442 75 90 57.3313 90C39.6626 90 25.3068 75.6442 25.3068 57.9755Z" fill="white"/>
<path d="M176.135 18.8649C175.951 18.8649 159.479 19.5091 144.755 13.7116L143.19 13.0674L142.362 14.5398C134.172 28.7116 135.552 76.5643 175.123 104.724L176.319 105.552L177.515 104.724C217.178 76.5643 218.466 28.7116 210.276 14.5398L209.448 13.0674L207.883 13.7116C192.975 19.5091 176.503 18.8649 176.135 18.8649ZM176.135 22.822C176.871 22.822 193.62 23.4662 209.172 17.4846L206.687 16.6563C214.325 29.9079 212.761 74.8159 175.031 101.595H177.331C139.601 74.8159 138.037 29.9079 145.675 16.6563L143.19 17.4846C158.834 23.4662 175.583 22.914 176.135 22.822Z" fill="white"/>
<path d="M49.0491 32.3926C49.0491 32.3926 46.3804 33.0368 42.7914 35.2453C39.3865 37.3619 37.0859 39.9386 37.0859 39.9386C37.0859 39.9386 48.3129 39.9386 49.3251 39.9386C50.7975 39.9386 50.1534 39.0184 49.8773 38.6503C49.4172 37.9141 48.681 36.8098 48.5889 34.8773C48.5889 33.4969 49.0491 32.3926 49.0491 32.3926Z" fill="#3957B5"/>
<path d="M65.1534 32.3926C65.1534 32.3926 67.8221 33.0368 71.4111 35.2453C74.816 37.3619 77.1166 39.9386 77.1166 39.9386C77.1166 39.9386 65.8896 39.9386 64.8773 39.9386C63.4049 39.9386 64.0491 39.0184 64.3252 38.6503C64.7853 37.9141 65.5215 36.8098 65.6135 34.8773C65.7055 33.4969 65.1534 32.3926 65.1534 32.3926Z" fill="#3957B5"/>
<path d="M57.4233 59.9079C58.5276 59.9079 59.0798 60.3681 60 61.8404C61.0123 63.3128 75.5522 84.5705 75.5522 84.5705L77.9448 82.638L76.8405 81.8098C76.8405 81.8098 63.0368 56.411 62.6687 55.3987C62.1166 54.2024 61.8405 52.546 62.3006 51.0736C62.7608 49.7852 64.6012 48.865 65.6135 48.6809C66.6258 48.4969 87.8835 46.6564 87.8835 46.6564L86.7792 44.1718C86.7792 44.1718 63.9571 43.8957 62.9448 43.8957C61.1963 43.8957 59.7239 43.1595 59.0798 41.9631C58.4356 40.8588 59.1718 39.2024 59.3558 38.5582C59.6319 37.638 61.2884 36.1656 61.1963 33.5889C61.1043 29.9079 57.2393 29.8159 57.2393 29.8159C57.2393 29.8159 53.4663 29.9079 53.3742 33.5889C53.2822 36.1656 54.9387 37.638 55.2147 38.5582C55.3988 39.1104 56.135 40.7668 55.4908 41.9631C54.8466 43.0674 53.3743 43.8957 51.6258 43.8957C50.5215 43.8957 27.7914 44.1718 27.7914 44.1718L26.6871 46.6564C26.6871 46.6564 47.9448 48.4969 48.9571 48.6809C49.9693 48.865 51.9019 49.7852 52.27 51.0736C52.7301 52.546 52.454 54.2944 51.9019 55.3987C51.4417 56.411 37.7301 81.8098 37.7301 81.8098L36.6258 82.638L39.0184 84.5705C39.0184 84.5705 53.5583 63.3128 54.5706 61.8404C55.5828 60.3681 56.319 59.9079 57.4233 59.9079Z" fill="#3957B5"/>
<path d="M30 58.3435C30 56.0429 30.2761 53.7423 30.8282 51.6257L46.4724 53.0981C47.9448 53.1902 48.1288 53.8343 47.5767 54.8466L36.2577 75.7362C32.3006 70.9509 30 64.8773 30 58.3435Z" fill="#3957B5"/>
<path d="M57.1472 85.4908C53.3742 85.4908 49.6933 84.6626 46.3804 83.2822C48.0368 80.7055 56.135 68.4663 56.411 68.0062C56.6871 67.454 56.9632 66.8098 57.4233 66.8098C57.8834 66.8098 58.2515 67.454 58.5276 68.0062C58.8037 68.4663 66.4417 80.1534 68.3742 83.0982C64.9693 84.5706 61.1963 85.4908 57.1472 85.4908Z" fill="#3957B5"/>
<path d="M84.2945 58.3435C84.2945 56.0429 84.0184 53.7423 83.4663 51.6257L67.8221 53.0981C66.3497 53.1902 66.1657 53.8343 66.7178 54.8466L78.0368 75.7362C81.9019 70.9509 84.2945 64.8773 84.2945 58.3435Z" fill="#3957B5"/>
<path d="M178.896 42.6995C175.951 42.5154 173.65 41.9633 172.546 41.7792L172.086 38.1903C173.742 37.9142 174.386 37.178 174.663 36.7179C175.859 36.8099 178.159 37.178 178.252 36.9019C178.344 36.1657 174.386 35.6136 174.386 35.3375C174.386 35.1535 176.779 34.8774 176.871 34.6013C177.055 34.2332 175.859 32.5768 174.755 31.3804C173.742 30.2762 172.27 29.54 172.27 29.54C172.27 28.7117 172.178 27.8835 172.362 27.0553C172.454 26.1351 178.804 28.1596 178.712 29.54C178.62 32.7608 179.632 34.3252 179.632 34.3252C182.025 33.405 183.037 31.7485 184.141 31.0123C186.258 29.724 188.374 32.4847 187.638 33.313C185.521 36.2577 183.773 36.9019 181.38 39.6626C180.92 40.4909 178.896 42.6995 178.896 42.6995Z" fill="white"/>
<path fill-rule="evenodd" clip-rule="evenodd" d="M169.509 31.1963C168.589 31.1042 168.405 31.2883 169.233 31.8404C169.693 32.1165 170.153 32.2085 170.245 32.3926C170.429 32.6686 170.798 32.8527 171.35 32.6686C171.902 32.4846 172.086 32.0245 171.902 31.6564C171.902 31.3803 170.337 31.1963 169.509 31.1963ZM166.656 41.2269C170.798 43.0674 175.491 43.7116 180.184 44.2637C188.006 45.184 190.583 57.3312 179.632 59.0797L179.54 58.4355V52.822C181.472 52.4539 181.196 50.1533 178.712 49.9693C171.442 49.4171 167.761 49.3251 163.067 46.5643C156.534 42.7913 155.613 33.4048 164.08 30.276C166.84 29.2637 170.89 30.276 171.81 30.8281C173.006 31.4723 174.11 32.6686 174.847 33.4048C175.859 34.4171 174.755 34.3251 173.834 34.3251H168.957C168.405 34.3251 167.945 34.4171 167.853 34.6012C167.669 35.1533 170.706 36.0735 171.718 36.4416C173.374 37.0858 172.914 37.2699 172.086 37.3619C170.613 37.5459 168.497 37.3619 167.485 37.1778C166.748 37.0858 165.092 36.6257 165.092 36.6257C163.528 37.4539 164.448 40.2147 166.656 41.2269Z" fill="white"/>
<path d="M173.282 59.816C174.202 60.1841 175.951 60.3682 178.252 60.5522L178.344 51.1657L172.454 50.7976C172.454 50.7976 171.258 52.4541 170.614 53.3743L173.282 59.816Z" fill="white"/>
<path d="M178.252 68.006L177.883 75.46C175.583 74.8159 174.479 73.8036 174.479 73.8036L174.11 67.6379L176.595 67.914L178.252 68.006Z" fill="white"/>
<path d="M174.663 81.5337L175.491 94.7852C175.583 95.3374 177.607 95.3374 177.607 94.6932C177.699 93.4049 178.068 84.0184 178.068 84.0184C176.963 81.6257 175.491 81.5337 174.663 81.5337Z" fill="white"/>
<path d="M171.442 91.5644C171.718 93.4049 172.914 93.773 172.914 92.3926C172.914 91.8405 173.282 90.3681 174.11 89.7239L174.018 85.9509C172.178 87.1472 171.166 88.8037 171.442 91.5644Z" fill="white"/>
<path d="M179.356 69.0185C178.804 69.5707 178.988 73.4357 178.988 73.4357C178.988 73.4357 180 73.4357 180.736 73.1596C188.834 69.9388 184.877 61.8406 176.595 61.4725C174.387 61.2884 172.362 61.5645 171.902 59.632L170.153 55.1228C170.153 55.1228 167.669 56.2271 167.209 58.1596C166.748 60.2762 166.84 63.2209 170.061 64.9694C172.546 66.5338 176.871 66.1657 178.436 66.4418C181.933 67.178 179.724 68.7424 179.356 69.0185Z" fill="white"/>
<path d="M177.331 76.8405C183.589 79.4172 183.865 84.1105 178.988 86.9632L178.804 82.6381C178.252 80.6135 173.834 79.7853 171.81 78.8651C167.669 76.6565 167.945 72.8835 170.798 70.6749C171.626 70.0307 173.19 69.8467 173.19 69.8467L173.558 73.7117C171.718 74.724 173.374 75.1841 177.331 76.8405Z" fill="white"/>
</g>
<defs>
<clipPath id="clip0_317_659">
<rect width="536" height="122" fill="white"/>
</clipPath>
</defs>
</svg>
