<svg width="600" height="109" viewBox="0 0 600 109" fill="none" xmlns="http://www.w3.org/2000/svg">
<g clip-path="url(#clip0_317_889)">
<path d="M326.421 101.261H403.847V91.8023H339.703V61.5317H387.884V51.9707H339.703V24.0904H403.847V14.666H326.421V101.261Z" fill="black"/>
<path d="M366.662 0.666016L356.179 12.4465L389.079 0.666016H366.662Z" fill="black"/>
<path d="M521.737 14.666V101.244H600V91.8023H533.842V14.666H521.737Z" fill="black"/>
<path d="M441.698 67.9853L462.51 26.7196L483.493 68.0707L441.698 67.9853ZM453.974 14.666L409.993 101.261H424.949L436.218 78.8438H489.025L500.378 101.261H515.113L471.047 14.666H453.974Z" fill="black"/>
<path d="M274.04 54.702H233.594V24.9094H275.44C285.07 24.9094 290.499 29.3996 292.513 35.1533C293.092 37.2545 293.24 39.4513 292.946 41.611C292.653 43.7706 291.925 45.8485 290.806 47.7191C287.392 53.5069 280.665 54.7361 274.075 54.7361M284.438 65.0824C304.277 59.7898 306.206 45.0215 306.104 39.7459C304.926 24.2777 294.494 14.6997 275.765 14.6997H221.131V101.26H233.577V64.9288H269.106L295.194 101.26H310.884C310.884 101.26 292.104 76.8116 284.335 65.0483" fill="black"/>
<path d="M146.385 0C111.265 0 87.3289 24.756 87.3289 54.7364C87.3289 86.2875 113.775 108.568 146.385 108.568C178.994 108.568 205.407 86.6118 205.407 54.7364C205.407 24.756 181.18 0 146.385 0ZM145.958 97.8118C121.663 97.8118 101.653 78.2802 101.653 54.7705C101.653 31.2608 120.724 10.8073 146.897 10.8073C152.707 10.7486 158.47 11.8425 163.855 14.0258C169.239 16.2091 174.137 19.4384 178.265 23.5268C182.393 27.6153 185.67 32.4817 187.905 37.8446C190.14 43.2075 191.29 48.9604 191.287 54.7705C191.219 78.2802 170.253 97.8118 145.958 97.8118Z" fill="black"/>
<path d="M55.9998 45.2952H64.9631L81.268 14.666H68.1558L55.9998 45.2952Z" fill="black"/>
<path d="M0 14.666V101.244H78.2631V91.8023H12.1048V14.666H0Z" fill="black"/>
</g>
<defs>
<clipPath id="clip0_317_889">
<rect width="600" height="108.551" fill="white"/>
</clipPath>
</defs>
</svg>
