<svg width="496" height="95" viewBox="0 0 496 95" fill="none" xmlns="http://www.w3.org/2000/svg">
<g clip-path="url(#clip0_317_626)">
<path d="M79.0465 19.2587H91.0308C100.41 19.2587 104.839 17.4349 106.923 14.5691C109.268 11.7033 108.747 10.6612 98.5862 10.6612H86.6018L79.0465 19.2587ZM65.4989 35.9325H78.2649C89.4676 35.9325 94.1572 34.8904 96.7625 31.5035C99.3678 28.1167 97.023 26.5535 85.8202 26.5535H73.5753L65.4989 35.9325ZM60.8094 2.32422H117.084C142.095 2.32422 149.389 6.23216 143.397 13.527C138.708 19.5192 128.026 22.1245 116.042 23.6877C127.505 23.9482 136.102 27.0745 130.371 34.3694C127.766 37.7563 123.076 40.6221 118.126 42.1853C110.831 44.53 104.839 45.5722 86.8623 45.5722H26.1589L60.8094 2.32422Z" fill="#F05F22"/>
<path d="M168.669 2.32422H218.951L223.38 31.5035H223.64L245.525 2.32422H276.528L242.138 45.5722H193.68L189.251 14.8296H189.772L165.282 45.5722H134.539L168.669 2.32422Z" fill="#F05F22"/>
<path d="M304.144 31.7643C302.32 34.109 303.623 35.6722 304.926 36.7143C306.228 37.7565 310.136 38.7986 314.565 38.7986C320.818 38.7986 329.937 38.017 331.76 35.6722C332.281 34.8906 331.76 33.0669 331.5 32.5459C329.155 29.68 291.378 27.8563 284.344 22.6457C281.478 20.5615 282.52 17.4351 284.604 15.0904C292.16 5.7113 311.96 0.76123 344.787 0.76123C379.698 0.76123 386.472 6.49289 379.958 15.3509H347.132C348.955 13.0061 347.913 11.1824 346.089 10.4008C344.526 9.61924 341.139 9.09818 336.71 9.09818C329.416 9.09818 323.944 9.87977 322.121 12.2245C321.6 13.0061 321.6 14.8298 322.121 15.3509C325.247 17.9562 361.982 20.0404 368.756 25.251C370.84 26.8142 372.142 29.159 368.756 33.3274C361.982 41.9249 343.484 47.9171 305.968 47.9171C261.157 47.9171 264.283 40.6223 270.015 32.5459H304.144" fill="#F05F22"/>
<mask id="mask0_317_626" style="mask-type:luminance" maskUnits="userSpaceOnUse" x="0" y="0" width="496" height="95">
<path d="M495.634 0.500488H0.105957V94.5517H495.634V0.500488Z" fill="white"/>
</mask>
<g mask="url(#mask0_317_626)">
<path d="M409.138 2.32422H484.952L476.615 12.2243H436.493L429.198 20.3008H468.278L460.723 29.9404H421.904L408.877 45.5722H374.487L409.138 2.32422Z" fill="#F05F22"/>
</g>
<mask id="mask1_317_626" style="mask-type:luminance" maskUnits="userSpaceOnUse" x="0" y="0" width="496" height="95">
<path d="M495.634 0.500488H0.105957V94.5517H495.634V0.500488Z" fill="white"/>
</mask>
<g mask="url(#mask1_317_626)">
<path d="M443.007 57.5565L0.105957 78.3989L19.1246 54.4302H445.612L443.007 57.5565Z" fill="#231F20"/>
</g>
<path d="M238.23 83.0884H242.659C245.785 83.0884 248.13 82.5673 249.954 80.7436C251.257 78.6593 250.475 77.6172 247.349 77.6172H241.878L238.23 83.0884ZM239.272 75.2725H250.736C254.904 75.2725 256.467 77.3567 254.383 80.4831C252.038 83.8699 249.954 85.1726 245.525 85.4331C249.693 85.6936 248.651 87.5174 246.307 91.1648C245.264 92.728 244.743 93.7701 244.483 94.5517H239.793C240.054 94.0306 240.835 92.728 241.617 91.4253C244.222 87.5174 243.701 86.9963 239.533 86.9963H235.625L230.154 94.5517H225.464L239.272 75.2725Z" fill="#231F20"/>
<path d="M275.486 86.736L277.31 78.3991L267.409 86.736H275.486ZM275.746 75.0122H282.781L278.873 94.2914H273.923L274.704 89.8624H263.762L258.812 94.2914H252.559L275.746 75.0122Z" fill="#231F20"/>
<path d="M389.337 86.7358L391.422 78.1383L381.521 86.7358H389.337ZM389.598 74.7515H396.632L392.724 94.2912H387.514L388.295 89.8622H377.353L372.142 94.2912H365.89L389.598 74.7515Z" fill="#231F20"/>
<path d="M301.278 74.7515H306.489L292.941 94.0307H287.731L301.278 74.7515Z" fill="#231F20"/>
<path d="M320.036 74.7515H324.465L313.784 90.3833H324.205L321.339 94.0307H306.489L320.036 74.7515Z" fill="#231F20"/>
<path d="M354.166 74.4912H359.376L353.905 89.6019L369.537 74.4912H373.706L353.645 94.0309H348.174L353.905 78.3992H353.645L337.752 94.0309H332.542L339.316 74.7517H344.005L338.534 89.6019L354.166 74.4912Z" fill="#231F20"/>
<path d="M431.804 74.4912L414.869 86.4756L409.659 94.0309H404.448L409.919 86.4756L409.138 74.7517H414.609L414.869 82.0466L424.509 74.4912H431.804Z" fill="#231F20"/>
<path d="M358.074 74.4912H353.124L336.971 90.3835L334.626 93.7704H338.013L358.074 74.4912Z" fill="#231F20"/>
<mask id="mask2_317_626" style="mask-type:luminance" maskUnits="userSpaceOnUse" x="0" y="0" width="496" height="95">
<path d="M495.634 0.500488H0.105957V94.5517H495.634V0.500488Z" fill="white"/>
</mask>
<g mask="url(#mask2_317_626)">
<path d="M373.706 74.4907H368.756L352.342 90.383L350.258 93.7699H353.905L373.706 74.4907Z" fill="#231F20"/>
</g>
<mask id="mask3_317_626" style="mask-type:luminance" maskUnits="userSpaceOnUse" x="0" y="0" width="496" height="95">
<path d="M495.634 0.500488H0.105957V94.5517H495.634V0.500488Z" fill="white"/>
</mask>
<g mask="url(#mask3_317_626)">
<path d="M495.634 4.40822C495.634 6.75299 493.81 8.5767 491.465 8.5767C489.381 8.5767 487.297 6.75299 487.297 4.40822C487.297 2.06346 489.12 0.239746 491.465 0.239746C494.07 0.500276 495.634 2.32399 495.634 4.40822ZM488.078 4.40822C488.078 6.49246 489.641 8.05564 491.726 8.05564C493.81 8.05564 495.373 6.49246 495.373 4.40822C495.373 2.58451 493.81 0.760808 491.726 0.760808C489.902 1.02134 488.078 2.58451 488.078 4.40822ZM490.162 2.32399H491.726C491.986 2.32399 493.289 2.32399 493.289 3.36611C493.289 3.36611 493.289 4.14769 492.507 4.40822C493.028 4.40822 493.028 4.66875 493.289 5.18981C493.289 5.71087 493.289 6.23193 493.549 6.49246H493.028C493.028 6.23193 493.028 5.9714 492.768 5.45034C492.768 4.66875 492.507 4.66875 491.726 4.66875H490.944V6.75299H490.423V2.32399H490.162ZM490.944 4.14769H491.986C492.247 4.14769 492.768 4.14769 492.768 3.36611C492.768 2.58452 492.247 2.58451 491.986 2.58451H490.944V4.14769Z" fill="#231F20"/>
</g>
</g>
<defs>
<clipPath id="clip0_317_626">
<rect width="496" height="95" fill="white"/>
</clipPath>
</defs>
</svg>
