<svg width="604" height="129" viewBox="0 0 604 129" fill="none" xmlns="http://www.w3.org/2000/svg">
<g clip-path="url(#clip0_317_825)">
<path d="M213.2 74.3001L209.6 84.5001H209.3C208.7 82.2001 207.6 78.7001 205.8 74.5001L186.5 26.0001H167.6V103.3H180.1V55.6001C180.1 52.6001 180.1 49.2001 180 45.0001C179.9 42.9001 179.7 41.3001 179.6 40.1001H179.9C180.5 43.1001 181.2 45.3001 181.7 46.7001L204.9 103.1H213.7L236.7 46.2001C237.2 44.9001 237.7 42.3001 238.2 40.1001H238.5C238.2 45.8001 238 50.9001 237.9 54.0001V103H251.2V25.8001H233L213.2 74.3001ZM263.8 47.6001H276.8V103H263.8V47.6001ZM270.4 24.2001C268.2 24.2001 266.4 25.0001 264.9 26.4001C263.4 27.8001 262.6 29.6001 262.6 31.8001C262.6 33.9001 263.4 35.7001 264.9 37.1001C266.4 38.5001 268.2 39.2001 270.4 39.2001C272.6 39.2001 274.5 38.4001 275.9 37.1001C277.4 35.7001 278.2 33.9001 278.2 31.8001C278.2 29.7001 277.4 27.9001 275.9 26.4001C274.6 25.0001 272.7 24.2001 270.4 24.2001ZM322.9 47.1001C320.5 46.6001 318 46.3001 315.6 46.3001C309.7 46.3001 304.3 47.6001 299.8 50.2001C295.3 52.8001 291.7 56.4001 289.4 60.9001C287 65.5001 285.8 70.8001 285.8 76.9001C285.8 82.2001 287 86.9001 289.3 91.2001C291.6 95.4001 294.8 98.8001 299.1 101.1C303.2 103.4 308 104.6 313.4 104.6C319.6 104.6 324.9 103.3 329.1 100.9L329.2 100.8V88.8001L328.7 89.2001C326.8 90.6001 324.6 91.8001 322.4 92.5001C320.1 93.3001 318 93.7001 316.2 93.7001C311 93.7001 306.9 92.2001 304 88.9001C301 85.7001 299.5 81.3001 299.5 75.8001C299.5 70.1001 301 65.6001 304.1 62.3001C307.2 59.0001 311.3 57.3001 316.3 57.3001C320.5 57.3001 324.8 58.7001 328.7 61.5001L329.2 61.9001V49.2001L329.1 49.1001C327.4 48.4001 325.5 47.6001 322.9 47.1001ZM365.8 46.7001C362.6 46.7001 359.6 47.7001 357 49.8001C354.8 51.6001 353.3 54.2001 352 57.3001H351.9V47.6001H338.9V103H351.9V74.7001C351.9 69.9001 352.9 65.9001 355.1 63.0001C357.3 60.0001 360.1 58.5001 363.5 58.5001C364.7 58.5001 365.9 58.8001 367.4 59.0001C368.8 59.4001 369.8 59.8001 370.5 60.3001L371 60.7001V47.7001L370.7 47.6001C369.8 47.0001 368 46.7001 365.8 46.7001ZM401.2 46.4001C392.1 46.4001 384.8 49.1001 379.7 54.4001C374.5 59.7001 372 67.0001 372 76.2001C372 84.8001 374.6 91.8001 379.6 96.9001C384.6 101.9 391.4 104.5 399.9 104.5C408.8 104.5 415.9 101.8 421 96.4001C426.2 91.0001 428.7 83.8001 428.7 74.9001C428.7 66.1001 426.3 59.1001 421.4 54.0001C416.7 48.9001 409.8 46.4001 401.2 46.4001ZM411.6 89.0001C409.2 92.1001 405.4 93.6001 400.7 93.6001C396 93.6001 392.2 92.1001 389.5 88.8001C386.8 85.7001 385.5 81.2001 385.5 75.5001C385.5 69.6001 386.9 65.1001 389.5 61.9001C392.2 58.7001 395.9 57.1001 400.6 57.1001C405.2 57.1001 408.8 58.6001 411.4 61.7001C414 64.8001 415.4 69.3001 415.4 75.2001C415.2 81.2001 414.1 85.9001 411.6 89.0001ZM457.7 70.6001C453.6 68.9001 451 67.6001 449.8 66.5001C448.8 65.5001 448.3 64.1001 448.3 62.3001C448.3 60.8001 448.9 59.3001 450.4 58.3001C451.9 57.3001 453.6 56.8001 456.1 56.8001C458.3 56.8001 460.6 57.2001 462.8 57.8001C465 58.4001 467 59.3001 468.6 60.5001L469.1 60.9001V48.7001L468.8 48.6001C467.3 48.0001 465.3 47.4001 462.9 46.9001C460.5 46.5001 458.3 46.3001 456.5 46.3001C450.3 46.3001 445.2 47.8001 441.2 51.1001C437.2 54.2001 435.3 58.4001 435.3 63.3001C435.3 65.9001 435.7 68.2001 436.6 70.1001C437.5 72.0001 438.8 73.8001 440.6 75.3001C442.4 76.7001 445 78.3001 448.6 79.8001C451.6 81.1001 453.9 82.1001 455.3 82.9001C456.7 83.7001 457.6 84.6001 458.3 85.3001C458.8 86.1001 459.1 87.1001 459.1 88.4001C459.1 92.1001 456.3 93.9001 450.6 93.9001C448.4 93.9001 446.1 93.5001 443.4 92.6001C440.7 91.7001 438.2 90.4001 436.1 88.9001L435.6 88.5001V101.2L435.9 101.3C437.8 102.2 440.1 102.8 442.9 103.5C445.7 104 448.2 104.4 450.4 104.4C457.1 104.4 462.6 102.9 466.5 99.6001C470.5 96.4001 472.6 92.3001 472.6 87.0001C472.6 83.3001 471.6 80.0001 469.4 77.5001C466.5 75.1001 462.9 72.6001 457.7 70.6001ZM506.9 46.4001C497.8 46.4001 490.5 49.1001 485.4 54.4001C480.3 59.7001 477.7 67.0001 477.7 76.2001C477.7 84.8001 480.3 91.8001 485.3 96.9001C490.3 101.9 497.1 104.5 505.6 104.5C514.5 104.5 521.6 101.8 526.7 96.4001C531.9 91.0001 534.4 83.8001 534.4 74.9001C534.4 66.1001 532 59.1001 527.1 54.0001C522.4 48.9001 515.5 46.4001 506.9 46.4001ZM517.2 89.0001C514.8 92.1001 511 93.6001 506.3 93.6001C501.5 93.6001 497.8 92.1001 495.1 88.8001C492.4 85.7001 491.1 81.2001 491.1 75.5001C491.1 69.6001 492.5 65.1001 495.1 61.9001C497.8 58.7001 501.5 57.1001 506.2 57.1001C510.7 57.1001 514.4 58.6001 517 61.7001C519.6 64.8001 521 69.3001 521 75.2001C521 81.2001 519.7 85.9001 517.2 89.0001ZM603.9 58.3001V47.6001H590.8V31.2001L590.4 31.3001L578 35.0001L577.7 35.1001V47.6001H558.1V40.6001C558.1 37.4001 558.9 34.9001 560.3 33.3001C561.7 31.7001 563.8 30.9001 566.4 30.9001C568.2 30.9001 570.1 31.3001 572.2 32.2001L572.7 32.5001V21.2001L572.4 21.1001C570.6 20.5001 568.2 20.1001 565.1 20.1001C561.2 20.1001 557.8 21.0001 554.7 22.5001C551.6 24.2001 549.3 26.5001 547.6 29.6001C545.9 32.6001 545 36.0001 545 39.9001V47.6001H535.9V58.2001H545V103H558.1V58.3001H577.7V86.8001C577.7 98.5001 583.2 104.4 594.2 104.4C596 104.4 597.9 104.1 599.7 103.8C601.6 103.4 603 102.9 603.8 102.5L603.9 102.4V91.7001L603.4 92.1001C602.6 92.6001 601.9 93.0001 600.7 93.3001C599.7 93.6001 598.8 93.7001 598.1 93.7001C595.5 93.7001 593.7 93.1001 592.4 91.6001C591.2 90.2001 590.6 87.9001 590.6 84.5001V58.3001H603.9Z" fill="#737373"/>
<path d="M0 0H61.3V61.3H0V0Z" fill="#F25022"/>
<path d="M67.7 0H129V61.3H67.7V0Z" fill="#7FBA00"/>
<path d="M0 67.7002H61.3V129H0V67.7002Z" fill="#00A4EF"/>
<path d="M67.7 67.7002H129V129H67.7V67.7002Z" fill="#FFB900"/>
</g>
<defs>
<clipPath id="clip0_317_825">
<rect width="604" height="129" fill="white"/>
</clipPath>
</defs>
</svg>
