<svg width="600" height="172" viewBox="0 0 600 172" fill="none" xmlns="http://www.w3.org/2000/svg">
<g clip-path="url(#clip0_317_910)">
<path d="M176.429 50.7145C145 50.7145 119.286 76.4288 119.286 107.857C119.286 139.286 145 165 176.429 165C207.857 165 233.571 139.286 233.571 107.857C233.571 76.4288 207.857 50.7145 176.429 50.7145ZM204.286 107.143C204.286 122.857 192.143 135.714 177.143 135.714C162.143 135.714 150 122.857 150 107.143C150 91.4288 162.143 78.5716 177.143 78.5716C192.143 78.5716 204.286 91.4288 204.286 107.143ZM376.429 52.8574C375.714 52.1431 375 52.1431 374.286 52.1431H351.429C350 52.1431 348.571 53.5716 348.571 55.0002V158.572C348.571 159.286 348.571 160 349.286 160.714C350 161.429 350.714 161.429 351.429 161.429H374.286C375.714 161.429 377.143 160 377.143 158.572V55.0002C377.143 54.2859 377.143 53.5716 376.429 52.8574ZM362.857 38.5716C371.429 38.5716 378.571 31.4288 378.571 22.8574C379.286 14.2859 371.429 7.14307 362.857 7.14307C354.286 7.14307 347.143 14.2859 347.143 22.8574C347.143 32.1431 354.286 38.5716 362.857 38.5716ZM332.143 9.28592H248.571C247.143 9.28592 245.714 10.7145 245.714 12.1431V158.572C245.714 159.286 245.714 160 246.429 160.714C247.143 161.429 247.857 161.429 248.571 161.429H271.429C272.857 161.429 274.286 160 274.286 158.572V99.2859H325.714C326.429 99.2859 327.143 99.2859 327.857 98.5716C328.571 97.8574 328.571 97.1431 328.571 96.4288V75.0002C328.571 73.5716 327.143 72.1431 325.714 72.1431H274.286V36.4288H332.143C332.857 36.4288 333.571 36.4288 334.286 35.7145C335 35.0002 335 34.2859 335 33.5716V12.1431C335 10.7145 333.571 9.28592 332.143 9.28592ZM65.7143 72.8574C42.8571 62.8573 35.7143 58.5716 35.7143 50.0002C35.7143 38.5716 46.4286 35.0002 56.4286 35.0002C67.1428 35.0002 78.5714 40.7145 78.5714 56.4288C78.5714 57.8574 79.2857 58.5716 80.7143 58.5716H105.714C106.429 57.8573 107.143 57.1431 107.143 56.4288C107.143 27.8574 86.4286 7.14307 56.4286 7.14307C26.4286 7.14307 7.14285 24.2859 7.14285 50.0002C7.14285 80.7145 30 90.0002 52.1429 98.5716L53.5714 99.2859C74.2857 107.143 81.4286 110.714 81.4286 120.714C81.4286 134.286 67.1429 136.429 59.2857 136.429C44.2857 136.429 32.8571 125.714 32.8571 111.429V110C32.8571 108.572 32.1429 107.857 30.7143 107.857H5.71428C5 107.857 3.57143 108.572 3.57143 110V112.143C3.57143 143.572 26.4286 165 58.5714 165C89.2857 165 110 147.143 110 121.429C110.714 95.0002 97.1428 85.7145 65.7143 72.8574ZM596.429 157.143C596.429 161.429 593.571 164.286 589.286 164.286C585 164.286 582.143 161.429 582.143 157.143C582.143 152.857 585 150 589.286 150C593.571 150 596.429 152.857 596.429 157.143ZM583.571 157.143C583.571 160.714 585.714 162.857 589.286 162.857C592.857 162.857 595 160.714 595 157.143C595 153.572 592.857 151.429 589.286 151.429C585.714 151.429 583.571 153.572 583.571 157.143ZM592.143 155.714C592.143 156.429 591.428 157.143 590.714 157.857L592.143 160.714H590L588.571 157.857H587.857V160.714H586.429V153.572H589.286C590.714 153.572 592.143 154.286 592.143 155.714ZM588.571 155V157.143H589.286C590 157.143 590.714 156.429 590.714 156.429C590.714 155.714 590 155.714 589.286 155.714H588.571V155ZM559.286 13.5716C569.286 13.5716 577.143 21.4288 577.143 31.4288C577.143 41.4288 569.286 49.2859 559.286 49.2859C549.286 49.2859 541.429 41.4288 541.429 31.4288C541.429 21.4288 549.286 13.5716 559.286 13.5716ZM559.286 7.14307C545.714 7.14307 534.286 18.5716 534.286 32.1431C534.286 45.7145 545.714 57.1431 559.286 57.1431C572.857 57.1431 584.286 45.7145 584.286 32.1431C584.286 18.5716 572.857 7.14307 559.286 7.14307Z" fill="#00A2C7"/>
<path d="M571.188 107.615C583.318 101.019 587.803 85.8383 581.207 73.7087C574.611 61.5792 559.431 57.0935 547.301 63.6898C535.171 70.286 530.686 85.4663 537.282 97.5958C543.878 109.725 559.058 114.211 571.188 107.615Z" fill="#00A2C7"/>
<path d="M571.152 161.188C583.282 154.592 587.767 139.412 581.171 127.282C574.575 115.152 559.395 110.667 547.265 117.263C535.136 123.859 530.65 139.039 537.246 151.169C543.842 163.299 559.023 167.784 571.152 161.188Z" fill="#00A2C7"/>
<path d="M505.714 67.8572C510.714 67.8572 515 70.0001 518.571 72.8572C522.143 76.4286 523.571 80.7144 523.571 85.7144C523.571 95.7144 515.714 103.571 505.714 103.571C500.714 103.571 496.429 101.429 492.857 98.5715C489.286 95.0001 487.857 90.7144 487.857 85.7144C487.143 75.7144 495.714 67.8572 505.714 67.8572ZM505.714 60.7144C492.143 60.7144 480.714 72.1429 480.714 85.7144C480.714 99.2858 492.143 110.714 505.714 110.714C519.286 110.714 530.714 99.2858 530.714 85.7144C530.714 72.1429 519.286 60.7144 505.714 60.7144Z" fill="#00A2C7"/>
<path d="M474.835 95.6405C480.426 83.0163 474.725 68.2494 462.101 62.6578C449.477 57.0662 434.71 62.7672 429.118 75.3914C423.527 88.0156 429.228 102.782 441.852 108.374C454.476 113.966 469.243 108.265 474.835 95.6405Z" fill="#00A2C7"/>
<path d="M528.514 42.0917C534.105 29.4675 528.404 14.7006 515.78 9.109C503.156 3.51737 488.389 9.21838 482.798 21.8426C477.206 34.4668 482.907 49.2336 495.531 54.8252C508.155 60.4169 522.922 54.7159 528.514 42.0917Z" fill="#00A2C7"/>
<path d="M474.9 42.0262C480.491 29.4021 474.79 14.6352 462.166 9.04355C449.542 3.45191 434.775 9.15295 429.184 21.7771C423.592 34.4013 429.293 49.1682 441.917 54.7598C454.541 60.3514 469.308 54.6504 474.9 42.0262Z" fill="#00A2C7"/>
<path d="M528.383 149.32C533.975 136.696 528.274 121.929 515.65 116.337C503.026 110.745 488.259 116.446 482.667 129.071C477.075 141.695 482.776 156.462 495.401 162.053C508.025 167.645 522.792 161.944 528.383 149.32Z" fill="#00A2C7"/>
<path d="M452.143 121.429C457.143 121.429 461.429 123.571 465 126.429C468.571 130 470 134.286 470 139.286C470 149.286 462.143 157.143 452.143 157.143C442.143 157.143 434.286 149.286 434.286 139.286C433.571 129.286 442.143 121.429 452.143 121.429ZM452.143 114.286C438.571 114.286 427.143 125.714 427.143 139.286C427.143 152.857 438.571 164.286 452.143 164.286C465.714 164.286 477.143 152.857 477.143 139.286C477.143 125.714 465.714 114.286 452.143 114.286Z" fill="#00A2C7"/>
</g>
<defs>
<clipPath id="clip0_317_910">
<rect width="600" height="171.429" fill="white"/>
</clipPath>
</defs>
</svg>
