<svg width="582" height="342" viewBox="0 0 582 342" fill="none" xmlns="http://www.w3.org/2000/svg">
<g clip-path="url(#clip0_317_898)">
<rect width="571" height="288" rx="35" fill="white"/>
<path fill-rule="evenodd" clip-rule="evenodd" d="M544.175 -0.26642C554.718 1.05338 565.429 8.46483 569.382 18.6809L571.692 26.5903L572.018 68.5999L571.853 260.538C570.864 270.589 563.944 280.31 554.55 284.923C549.778 287.065 544.835 288.711 538.902 288.22H475.309V260.211L526.376 260.046C532.801 259.056 538.737 255.76 542.687 250.16L555.866 225.118C558.833 217.865 549.775 214.569 546.973 208.969C541.374 202.871 541.04 193.813 532.966 189.197L510.564 176.509C510.89 173.549 512.867 170.418 511.712 166.956C508.422 164.32 506.94 157.895 501.499 159.047H501.007L501.499 153.939C497.876 150.972 496.721 143.888 490.795 144.878C492.606 137.628 486.016 133.345 482.885 127.91C481.4 126.26 479.097 126.095 477.12 126.26L403.143 -0.269531L544.175 -0.26642Z" fill="#CA3132"/>
<path fill-rule="evenodd" clip-rule="evenodd" d="M439.886 148.012L446.148 131.207L343.842 -0.272461H29.3272C25.539 -0.107486 22.0777 0.882363 18.9494 2.19905C8.73333 6.15224 1.31877 16.8632 0.00208411 27.4061L-0.162891 256.246C-0.324754 261.68 1.15691 266.303 3.1335 270.91C7.7497 280.304 17.4677 286.729 27.3538 288.048L238.566 288.213L225.878 264.656L200.341 264.485C200.176 225.772 209.403 187.049 245.156 167.283L243.014 150.151H236.094C235.645 150.151 235.192 150.16 234.739 150.169C231.877 150.228 229.025 150.286 227.033 148.009C226.539 147.148 226.6 146.192 226.661 145.214C226.682 144.885 226.703 144.553 226.703 144.221L238.896 118.354L234.613 112.421H194.742C203.964 104.671 213.833 97.0287 223.563 89.4952C225.829 87.7402 228.088 85.9911 230.33 84.2479C230.656 81.9535 230.78 79.6191 230.903 77.3047C231.028 74.9659 231.151 72.6475 231.481 70.4117C232.963 54.9258 245.32 39.4368 260.311 34.9887C285.848 26.4224 318.14 29.2239 338.074 48.168C357.018 65.1387 357.183 90.1807 355.87 115.388H352.738C352.783 117.028 352.743 118.705 352.704 120.382C352.597 124.936 352.491 129.494 354.058 133.345C354.877 135.16 356.688 136.972 358.665 137.301L413.533 137.466L419.46 138.126L439.886 148.012ZM87.6476 228.405C89.7891 222.148 88.4724 214.737 85.341 209.461C81.9969 204.218 76.7332 200.493 70.6769 199.083C61.7807 197.601 53.5443 200.238 47.7764 207.157C42.0116 213.582 41.3517 224.95 45.4699 232.526C50.2479 241.257 59.4741 245.544 69.3602 244.389C77.4315 243.24 85.341 236.314 87.6476 228.405Z" fill="#36378D"/>
<path fill-rule="evenodd" clip-rule="evenodd" d="M115.217 313.915C115.379 309.8 115.161 306.006 112.69 303.046C109.066 299.251 103.137 299.086 98.5204 300.733C95.887 302.218 93.8264 304.857 93.3315 307.659V330.553C93.1665 334.176 94.0723 337.143 96.3788 339.617C99.1803 341.921 102.969 342.577 106.595 342.086C113.29 340.763 114.756 336.037 115.217 330.475V313.915ZM269.696 313.75C270.029 309.299 269.535 305.349 266.568 302.218C262.945 299.086 257.012 298.924 253.056 301.237C250.914 302.877 249.267 305.187 248.938 307.662L248.773 329.566C248.443 333.196 248.938 336.492 251.079 339.287C253.056 341.105 255.197 342.254 257.834 342.254C260.965 342.425 263.434 341.105 265.248 338.63L266.73 341.597H270.026V320.67H258.494V326.354C258.987 326.354 259.481 326.335 259.975 326.317C260.963 326.28 261.952 326.244 262.942 326.354C262.887 327.174 262.905 328.041 262.923 328.918C262.96 330.678 262.997 332.477 262.447 334.014C261.79 335.826 259.975 336.162 258.164 335.997C256.682 335.826 256.187 334.179 255.857 333.024L256.022 308.315L257.339 306.339C258.659 305.511 260.635 305.841 261.79 306.996C262.942 308.972 263.107 311.276 262.942 313.75H269.696ZM431.319 309.8C432.312 307.497 430.663 304.692 429.016 302.548C425.221 298.429 417.975 298.924 414.028 302.214C412.051 304.026 411.388 306.336 411.062 308.969C410.095 315.164 414.184 318.798 418.325 322.478C421.235 325.065 424.171 327.674 425.393 331.21C425.726 333.021 425.228 334.839 423.416 335.661C422.103 335.997 420.291 336.159 419.301 335.169C417.806 333.827 417.53 332.078 417.249 330.29C417.219 330.105 417.19 329.92 417.16 329.734L410.399 330.718L411.553 336.159C412.708 338.627 415.177 341.267 417.978 341.924C422.756 342.581 427.864 341.924 430.666 337.802C433.134 334.179 432.477 328.744 430.501 325.121C429.266 322.521 426.8 320.561 424.377 318.637C420.659 315.682 417.043 312.809 418.14 307.824C418.968 306.177 420.78 305.679 422.426 306.006C424.238 306.669 424.895 308.645 425.221 310.457L431.319 309.8ZM21.6705 306.377C20.4704 312.403 19.2704 318.429 17.7945 324.458L12.8515 300.244H3.46033V341.597H9.55508V309.635H9.88503C11.5927 318.871 13.4184 327.985 15.2624 337.19C15.5562 338.656 15.8504 340.125 16.1448 341.597H19.6092C21.5978 330.901 23.7947 320.245 26.1989 309.635V341.597H32.2937V300.244H22.9025C22.4847 302.288 22.0776 304.333 21.6705 306.377ZM57.6625 341.597H64.5822L56.8408 300.244H48.1064L40.365 341.597L47.2846 341.432L48.6013 332.533H56.3427C56.6727 334.016 56.8377 335.54 57.0026 337.065C57.1676 338.589 57.3326 340.114 57.6625 341.597ZM79.5762 341.267C81.7178 340.442 83.3676 338.139 83.6944 335.997L83.8625 300.238H76.7779L76.6129 334.011C75.8426 336.017 73.78 336.006 71.9007 335.995C71.7677 335.995 71.6356 335.994 71.5049 335.994V342.251C72.2034 342.21 72.9119 342.201 73.6178 342.191C75.7432 342.162 77.8448 342.134 79.5762 341.267ZM143.829 320.178C146.466 315.892 146.136 309.467 144.159 305.022C141.119 299.912 135.389 300.097 129.682 300.282C127.655 300.348 125.63 300.413 123.731 300.241V341.594H130.937V324.626C131.523 324.773 132.118 324.691 132.685 324.612C133.392 324.515 134.055 324.423 134.603 324.791L139.381 341.594H146.631L140.701 322.98C142.018 322.32 143.008 321.333 143.829 320.178ZM186.004 335.334L174.801 335.169V300.241H167.717V341.597H186.004V335.334ZM201.655 306.504H213.518L213.514 300.247H194.405V341.6H214.339V335.337C213.274 335.337 212.208 335.347 211.143 335.357C207.925 335.387 204.708 335.418 201.49 335.172C201.572 333.192 201.572 331.215 201.572 329.239C201.572 327.262 201.572 325.286 201.655 323.31H210.716V317.047H201.49L201.655 306.504ZM235.596 341.432H242.351L234.771 300.244H225.875L218.296 341.597H225.218L226.7 332.533C227.732 332.601 228.822 332.527 229.909 332.453C231.425 332.349 232.936 332.246 234.28 332.533L235.596 341.432ZM288.974 335.997C287.819 335.661 286.586 334.512 286.256 333.357L286.253 300.244H279.084V331.048C279.084 334.512 279.744 337.637 282.546 339.947C285.839 342.742 291.937 342.914 295.728 340.937C298.692 339.617 300.173 336.486 300.836 333.519V300.241H293.584C293.518 304.721 293.61 309.253 293.703 313.784C293.842 320.588 293.982 327.391 293.584 334.014C292.762 335.826 290.785 336.162 288.974 335.997ZM315.746 306.504H327.528L327.531 300.244H308.581V341.597H328.515V335.25H315.746V323.31H324.892V317.047H315.746V306.504ZM368.881 317.875C371.679 314.572 371.514 308.645 369.703 305.022C366.659 299.907 360.923 300.098 355.278 300.285C353.279 300.351 351.291 300.417 349.439 300.247V341.6C351.538 341.338 353.788 341.444 356.039 341.549C360.855 341.776 365.677 342.002 369.046 338.634C371.676 335.175 372.339 330.232 371.349 325.781C370.693 323.313 368.71 320.838 366.241 320.016L368.881 317.875ZM396.064 341.432H402.984L395.408 300.241H386.508L378.932 341.597H385.687L387 332.529H394.745L396.064 341.432ZM446.145 306.504H458.008V300.244H438.899V341.597H458.833V335.25H446.145V323.31H455.21V317.047H446.145V306.504ZM485.525 317.875C488.329 314.572 488.164 308.645 486.346 305.022C483.427 299.907 477.629 300.098 471.944 300.285C469.932 300.351 467.934 300.417 466.082 300.247V341.6C468.182 341.338 470.432 341.444 472.683 341.549C477.499 341.776 482.321 342.002 485.69 338.634C488.491 335.175 488.983 330.232 487.993 325.781C487.501 323.313 485.36 320.838 483.05 320.016L485.525 317.875ZM512.378 341.432H519.133L511.557 300.241H502.657L495.075 341.597H502L503.32 332.529H511.059L512.378 341.432ZM544.175 335.25H533.14V300.241H526.053V341.597H544.175V335.25ZM570.537 335.25H559.331V300.241H552.249V341.597H570.537V335.25ZM107.585 333.849V308.151C107.09 306.177 105.113 306.006 103.628 306.006C102.144 306.174 101.076 306.996 100.746 308.316C100.636 314.022 100.673 319.385 100.709 324.767C100.728 327.464 100.746 330.166 100.746 332.919C100.746 334.568 102.365 335.826 104.948 335.826C106.1 335.661 107.255 335.004 107.585 333.849ZM137.567 317.047C138.721 314.41 139.051 309.965 137.24 307.497C136.157 306.172 134.442 306.251 132.761 306.328C132.137 306.357 131.517 306.386 130.937 306.342V318.532C131.371 318.532 131.819 318.555 132.271 318.578C134.216 318.68 136.23 318.785 137.567 317.047ZM362.948 315.235C364.103 313.424 363.941 310.292 363.113 308.316C362.125 306.187 359.788 306.258 357.686 306.321C357.344 306.331 357.008 306.342 356.685 306.342V317.047C358.992 317.212 361.463 317.212 362.948 315.235ZM479.592 315.235C480.747 313.424 480.585 310.292 479.757 308.316C478.769 306.193 476.568 306.257 474.4 306.321C474.04 306.331 473.681 306.342 473.329 306.342V317.047C475.639 317.212 478.107 317.212 479.592 315.235ZM388.32 326.027H393.596L390.96 308.81L388.32 326.027ZM504.469 326.027H509.904L507.108 308.81L504.469 326.027ZM230.323 308.972L227.69 326.111H232.96L230.323 308.972ZM52.3927 309.302L49.7531 326.027H55.0292L52.3927 309.302ZM364.103 332.859C364.76 330.226 364.925 326.768 363.113 324.626C361.603 323.117 359.398 323.13 357.266 323.142C357.073 323.143 356.88 323.145 356.688 323.145V335.661H360.147C361.793 335.499 363.605 334.512 364.103 332.859ZM480.747 332.859C481.403 330.226 481.572 326.768 479.919 324.626C478.408 323.116 476.068 323.13 473.909 323.142C473.714 323.143 473.52 323.145 473.329 323.145V335.661H476.958C478.437 335.499 480.255 334.512 480.747 332.859Z" fill="black"/>
<path fill-rule="evenodd" clip-rule="evenodd" d="M578.561 286.315C580.099 287.865 580.871 289.739 580.871 291.927C580.871 294.14 580.099 296.023 578.561 297.58C577.018 299.136 575.144 299.92 572.943 299.92C570.742 299.92 568.868 299.136 567.331 297.58C565.793 296.023 565.033 294.14 565.033 291.927C565.033 289.739 565.799 287.865 567.343 286.315C568.887 284.758 570.761 283.98 572.943 283.98C575.137 283.98 577.011 284.758 578.561 286.315ZM579.473 285.421C578.625 284.553 577.608 283.867 576.485 283.406C575.362 282.944 574.157 282.716 572.943 282.735C571.735 282.717 570.536 282.946 569.419 283.408C568.302 283.87 567.292 284.555 566.45 285.421C565.579 286.264 564.891 287.276 564.427 288.395C563.963 289.514 563.733 290.716 563.751 291.927C563.751 294.492 564.644 296.674 566.425 298.476C568.212 300.288 570.387 301.187 572.943 301.187C575.499 301.187 577.674 300.288 579.473 298.476C581.273 296.671 582.178 294.489 582.178 291.927C582.178 289.384 581.273 287.214 579.473 285.421ZM574.313 291.501C573.936 291.653 573.369 291.725 572.616 291.725H571.01V288.058H572.529C573.519 288.058 574.238 288.185 574.68 288.434C575.131 288.69 575.355 289.182 575.355 289.919C575.355 290.697 575.004 291.227 574.313 291.501ZM569.223 296.966H571.01V292.973H572.414C573.363 292.973 574.026 293.082 574.403 293.3C575.035 293.676 575.358 294.448 575.358 295.622V296.425L575.396 296.752C575.402 296.795 575.414 296.83 575.421 296.861L575.446 296.963H577.117L577.055 296.836C576.995 296.666 576.964 296.487 576.965 296.307C576.948 296.058 576.939 295.809 576.94 295.56V294.819C576.92 294.249 576.727 293.7 576.386 293.244C576.015 292.708 575.436 292.381 574.639 292.254C575.265 292.157 575.757 291.992 576.112 291.768C576.775 291.336 577.102 290.673 577.102 289.767C577.102 288.497 576.579 287.638 575.533 287.208C574.944 286.965 574.026 286.844 572.766 286.844H569.22L569.223 296.966Z" fill="black"/>
</g>
<defs>
<clipPath id="clip0_317_898">
<rect width="582" height="342" fill="white"/>
</clipPath>
</defs>
</svg>
