<svg xmlns="http://www.w3.org/2000/svg" xmlns:xlink="http://www.w3.org/1999/xlink" width="710" zoomAndPan="magnify" viewBox="0 0 532.5 67.499998" height="90" preserveAspectRatio="xMidYMid meet" version="1.0"><defs><clipPath id="85a80e0f2a"><path d="M 470 0 L 530 0 L 530 67.003906 L 470 67.003906 Z M 470 0 " clip-rule="nonzero"/></clipPath><clipPath id="89123bb41f"><path d="M 403 0 L 454 0 L 454 67.003906 L 403 67.003906 Z M 403 0 " clip-rule="nonzero"/></clipPath><clipPath id="463b016d6b"><path d="M 320 0 L 391 0 L 391 67.003906 L 320 67.003906 Z M 320 0 " clip-rule="nonzero"/></clipPath><clipPath id="2bf850cae2"><path d="M 252 0 L 324 0 L 324 67.003906 L 252 67.003906 Z M 252 0 " clip-rule="nonzero"/></clipPath><clipPath id="bb44e6e56e"><path d="M 165 0 L 239 0 L 239 67.003906 L 165 67.003906 Z M 165 0 " clip-rule="nonzero"/></clipPath><clipPath id="078f9352f5"><path d="M 34 0 L 120 0 L 120 67.003906 L 34 67.003906 Z M 34 0 " clip-rule="nonzero"/></clipPath><clipPath id="6f7de31628"><path d="M 2 0 L 88 0 L 88 67.003906 L 2 67.003906 Z M 2 0 " clip-rule="nonzero"/></clipPath></defs><g clip-path="url(#85a80e0f2a)"><path fill="#09866f" d="M 528.875 -0.75 L 519.886719 -0.75 C 519.398438 -0.75 519 -0.351562 519 0.136719 L 519 48.394531 L 479.695312 -0.417969 C 479.527344 -0.628906 479.273438 -0.75 479.007812 -0.75 L 471.585938 -0.75 C 471.09375 -0.75 470.699219 -0.351562 470.699219 0.136719 L 470.699219 66.859375 C 470.699219 67.347656 471.09375 67.746094 471.585938 67.746094 L 480.574219 67.746094 C 481.0625 67.746094 481.460938 67.347656 481.460938 66.859375 L 481.460938 18.601562 L 520.765625 67.414062 C 520.933594 67.625 521.1875 67.746094 521.453125 67.746094 L 528.875 67.746094 C 529.367188 67.746094 529.761719 67.351562 529.761719 66.863281 L 529.761719 0.140625 C 529.761719 -0.351562 529.367188 -0.746094 528.875 -0.746094 Z M 528.875 -0.75 " fill-opacity="1" fill-rule="nonzero"/></g><g clip-path="url(#89123bb41f)"><path fill="#09866f" d="M 452.5625 58.234375 L 414.1875 58.234375 L 414.1875 37.628906 L 447.078125 37.628906 C 447.566406 37.628906 447.960938 37.230469 447.960938 36.742188 L 447.960938 29.195312 C 447.960938 28.707031 447.566406 28.308594 447.078125 28.308594 L 414.1875 28.308594 L 414.1875 8.761719 L 451.214844 8.761719 C 451.703125 8.761719 452.097656 8.367188 452.097656 7.878906 L 452.097656 0.140625 C 452.097656 -0.351562 451.703125 -0.746094 451.214844 -0.746094 L 404.3125 -0.746094 C 403.828125 -0.746094 403.429688 -0.351562 403.429688 0.140625 L 403.429688 66.863281 C 403.429688 67.351562 403.828125 67.746094 404.3125 67.746094 L 452.5625 67.746094 C 453.050781 67.746094 453.449219 67.351562 453.449219 66.863281 L 453.449219 59.125 C 453.449219 58.632812 453.050781 58.238281 452.5625 58.238281 Z M 452.5625 58.234375 " fill-opacity="1" fill-rule="nonzero"/></g><g clip-path="url(#463b016d6b)"><path fill="#09866f" d="M 389.308594 -0.75 L 380.378906 -0.75 C 380.027344 -0.75 379.710938 -0.542969 379.566406 -0.222656 L 355.742188 53.777344 L 332.089844 -0.214844 C 331.945312 -0.539062 331.628906 -0.746094 331.277344 -0.746094 L 321.574219 -0.746094 C 320.9375 -0.746094 320.511719 -0.0898438 320.765625 0.496094 L 350.125 67.21875 C 350.265625 67.539062 350.582031 67.746094 350.933594 67.746094 L 360.046875 67.746094 C 360.398438 67.746094 360.714844 67.539062 360.855469 67.214844 L 390.121094 0.496094 C 390.375 -0.0898438 389.949219 -0.746094 389.308594 -0.746094 Z M 389.308594 -0.75 " fill-opacity="1" fill-rule="nonzero"/></g><g clip-path="url(#2bf850cae2)"><path fill="#09866f" d="M 293.128906 -0.226562 C 292.984375 -0.542969 292.671875 -0.746094 292.324219 -0.746094 L 283.207031 -0.746094 C 282.859375 -0.746094 282.542969 -0.542969 282.398438 -0.226562 L 252.183594 66.496094 C 251.917969 67.082031 252.347656 67.746094 252.992188 67.746094 L 262.203125 67.746094 C 262.554688 67.746094 262.875 67.539062 263.015625 67.21875 L 270.179688 50.90625 L 305.25 50.90625 L 312.417969 67.21875 C 312.558594 67.539062 312.878906 67.746094 313.226562 67.746094 L 322.632812 67.746094 C 323.277344 67.746094 323.703125 67.082031 323.4375 66.496094 Z M 274.0625 42.070312 L 287.714844 11.003906 L 301.367188 42.070312 Z M 274.0625 42.070312 " fill-opacity="1" fill-rule="nonzero"/></g><g clip-path="url(#bb44e6e56e)"><path fill="#09866f" d="M 237.582031 -0.75 L 230.1875 -0.75 C 229.871094 -0.75 229.582031 -0.582031 229.421875 -0.308594 L 202.277344 46.015625 L 174.78125 -0.3125 C 174.621094 -0.582031 174.332031 -0.746094 174.019531 -0.746094 L 166.625 -0.746094 C 166.136719 -0.746094 165.742188 -0.351562 165.742188 0.140625 L 165.742188 66.863281 C 165.742188 67.351562 166.136719 67.746094 166.625 67.746094 L 175.230469 67.746094 C 175.71875 67.746094 176.117188 67.351562 176.117188 66.863281 L 176.117188 20.421875 L 199.308594 59.132812 C 199.46875 59.402344 199.757812 59.566406 200.070312 59.566406 L 204.136719 59.566406 C 204.449219 59.566406 204.734375 59.402344 204.898438 59.132812 L 228.101562 20.121094 L 228.1875 66.859375 C 228.1875 67.347656 228.582031 67.742188 229.074219 67.742188 L 237.679688 67.742188 C 238.167969 67.742188 238.5625 67.34375 238.5625 66.855469 L 238.46875 0.132812 C 238.46875 -0.351562 238.074219 -0.75 237.582031 -0.75 Z M 237.582031 -0.75 " fill-opacity="1" fill-rule="nonzero"/></g><g clip-path="url(#078f9352f5)"><path fill="#09866f" d="M 118.5625 -0.714844 C 117.859375 -0.699219 117.152344 -0.664062 116.449219 -0.601562 L 116.449219 -0.617188 C 114.8125 -0.472656 113.203125 -0.214844 111.636719 0.152344 C 109.222656 0.710938 106.867188 1.535156 104.621094 2.617188 C 102.378906 3.695312 100.273438 5.015625 98.335938 6.546875 C 91.429688 11.964844 86.664062 19.976562 85.496094 29.117188 C 85.300781 30.570312 85.203125 32.035156 85.207031 33.503906 C 85.207031 36.3125 84.8125 39.101562 83.878906 41.75 C 83.464844 42.929688 82.960938 44.078125 82.375 45.183594 C 80.308594 49.140625 77.195312 52.453125 73.378906 54.765625 C 69.558594 57.078125 65.183594 58.300781 60.71875 58.300781 C 56.253906 58.300781 51.875 57.078125 48.058594 54.765625 C 44.238281 52.453125 41.128906 49.140625 39.058594 45.183594 C 37.96875 48.675781 36.394531 51.996094 34.378906 55.050781 C 37.53125 59.007812 41.535156 62.207031 46.097656 64.40625 C 50.65625 66.601562 55.65625 67.746094 60.71875 67.746094 C 65.78125 67.746094 70.773438 66.601562 75.335938 64.40625 C 79.894531 62.207031 83.902344 59.011719 87.058594 55.050781 C 87.585938 54.398438 88.082031 53.726562 88.558594 53.035156 C 88.929688 52.496094 89.296875 51.910156 89.667969 51.316406 C 89.761719 51.167969 89.851562 51.015625 89.945312 50.871094 C 91.210938 53.011719 92.699219 55.003906 94.382812 56.816406 C 97.273438 59.964844 100.742188 62.542969 104.609375 64.40625 C 108.972656 66.503906 113.730469 67.640625 118.566406 67.734375 C 118.941406 67.746094 119.246094 67.441406 119.246094 67.066406 L 119.246094 58.972656 C 119.246094 58.597656 118.941406 58.296875 118.566406 58.285156 C 115.992188 58.214844 113.453125 57.734375 111.042969 56.878906 C 106.238281 55.148438 102.121094 51.980469 99.210938 47.894531 C 98.605469 47.027344 98.050781 46.125 97.554688 45.183594 L 97.546875 45.210938 C 95.816406 41.972656 94.777344 38.3125 94.632812 34.425781 C 94.640625 34.117188 94.644531 33.8125 94.644531 33.503906 C 94.652344 30.695312 95.125 27.90625 96.0625 25.257812 C 97.75 20.449219 100.882812 16.277344 105.035156 13.3125 C 109 10.484375 113.710938 8.886719 118.570312 8.722656 C 118.941406 8.710938 119.246094 8.410156 119.246094 8.035156 L 119.246094 -0.0429688 C 119.246094 -0.421875 118.941406 -0.722656 118.5625 -0.714844 Z M 118.5625 -0.714844 " fill-opacity="1" fill-rule="nonzero"/></g><g clip-path="url(#6f7de31628)"><path fill="#09866f" d="M 36.242188 33.492188 C 36.242188 30.683594 36.652344 27.894531 37.585938 25.246094 L 37.578125 25.246094 C 39.128906 20.726562 41.96875 16.757812 45.75 13.832031 C 49.527344 10.90625 54.082031 9.152344 58.847656 8.789062 C 63.613281 8.425781 68.378906 9.460938 72.5625 11.777344 C 76.746094 14.09375 80.15625 17.578125 82.378906 21.8125 C 83.46875 18.324219 85.046875 15.003906 87.0625 11.953125 C 83.910156 7.992188 79.902344 4.792969 75.34375 2.59375 C 70.78125 0.394531 65.785156 -0.75 60.722656 -0.75 C 55.660156 -0.75 50.664062 0.394531 46.105469 2.589844 C 41.542969 4.789062 37.535156 7.988281 34.386719 11.949219 C 34.273438 12.101562 34.160156 12.253906 34.046875 12.40625 L 34.039062 12.417969 C 33.660156 12.933594 33.269531 13.453125 32.90625 13.980469 C 32.433594 14.652344 31.980469 15.398438 31.523438 16.136719 C 30.203125 13.902344 28.640625 11.828125 26.867188 9.957031 C 24.027344 6.921875 20.644531 4.429688 16.882812 2.617188 C 12.523438 0.515625 7.769531 -0.625 2.941406 -0.726562 C 2.566406 -0.734375 2.261719 -0.429688 2.261719 -0.0546875 L 2.261719 8.035156 C 2.261719 8.40625 2.566406 8.710938 2.9375 8.722656 C 6.753906 8.839844 10.488281 9.84375 13.84375 11.652344 C 17.273438 13.519531 20.214844 16.164062 22.425781 19.355469 C 22.972656 20.148438 23.46875 20.972656 23.921875 21.828125 C 23.921875 21.820312 23.925781 21.816406 23.925781 21.808594 C 25.664062 25.066406 26.703125 28.753906 26.832031 32.675781 C 26.824219 32.953125 26.824219 33.230469 26.824219 33.507812 C 26.824219 36.316406 26.339844 39.101562 25.40625 41.75 C 24.992188 42.933594 24.488281 44.082031 23.902344 45.1875 C 23.238281 46.449219 22.46875 47.640625 21.605469 48.757812 C 19.089844 51.988281 15.792969 54.582031 12 56.253906 C 9.136719 57.5 6.058594 58.195312 2.921875 58.289062 C 2.546875 58.300781 2.242188 58.601562 2.242188 58.976562 L 2.242188 67.050781 C 2.242188 67.425781 2.546875 67.726562 2.921875 67.71875 C 7.75 67.617188 12.503906 66.480469 16.859375 64.378906 C 20.085938 62.824219 23.035156 60.769531 25.605469 58.296875 C 31.640625 52.550781 35.582031 44.628906 36.164062 35.785156 C 36.21875 35.023438 36.242188 34.253906 36.242188 33.484375 Z M 36.242188 33.492188 " fill-opacity="1" fill-rule="nonzero"/></g></svg>